<?xml version="1.0" encoding="UTF-8" standalone="no"?>
<svg
   xmlns:dc="http://purl.org/dc/elements/1.1/"
   xmlns:cc="http://creativecommons.org/ns#"
   xmlns:rdf="http://www.w3.org/1999/02/22-rdf-syntax-ns#"
   xmlns:svg="http://www.w3.org/2000/svg"
   xmlns="http://www.w3.org/2000/svg"
   viewBox="0 0 809.45331 565.91998"
   height="565.91998"
   width="809.45331"
   xml:space="preserve"
   id="svg2"
   version="1.1"><metadata
     id="metadata8"><rdf:RDF><cc:Work
         rdf:about=""><dc:format>image/svg+xml</dc:format><dc:type
           rdf:resource="http://purl.org/dc/dcmitype/StillImage" /></cc:Work></rdf:RDF></metadata><defs
     id="defs6"><clipPath
       id="clipPath22"
       clipPathUnits="userSpaceOnUse"><path
         id="path20"
         d="m 4546.67,3340.93 c -136.63,0 -247.39,110.75 -247.39,247.37 0,136.62 110.76,247.38 247.39,247.38 136.62,0 247.37,-110.76 247.37,-247.38 0,-136.62 -110.75,-247.37 -247.37,-247.37 z m 321.94,330.78 c -7.83,30.3 -19.84,58.91 -35.35,85.22 l 35.98,54.11 -49.92,49.92 -49.92,49.92 -54.11,-35.98 c -26.31,15.51 -54.92,27.52 -85.22,35.35 l -12.81,63.65 h -70.59 -70.6 l -12.81,-63.65 c -30.31,-7.83 -58.92,-19.84 -85.22,-35.35 l -54.12,35.98 -49.92,-49.92 -49.92,-49.92 35.98,-54.11 c -15.5,-26.31 -27.52,-54.92 -35.34,-85.22 l -63.66,-12.81 v -70.6 -70.6 l 63.66,-12.81 c 7.82,-30.3 19.84,-58.91 35.34,-85.21 l -35.98,-54.12 49.92,-49.92 49.92,-49.92 54.12,35.98 c 26.3,-15.51 54.91,-27.52 85.22,-35.35 l 12.81,-63.65 h 70.6 70.59 l 12.81,63.65 c 30.3,7.83 58.91,19.84 85.22,35.35 l 54.11,-35.98 49.92,49.92 49.92,49.92 -35.98,54.12 c 15.51,26.3 27.52,54.91 35.35,85.21 l 63.65,12.81 v 70.6 70.6 z" /></clipPath><linearGradient
       id="linearGradient28"
       spreadMethod="pad"
       gradientTransform="matrix(771.201,0,0,-771.201,4161.06,3588.3)"
       gradientUnits="userSpaceOnUse"
       y2="0"
       x2="1"
       y1="0"
       x1="0"><stop
         id="stop24"
         offset="0"
         style="stop-opacity:1;stop-color:#ff9f55" /><stop
         id="stop26"
         offset="1"
         style="stop-opacity:1;stop-color:#ffd255" /></linearGradient><clipPath
       id="clipPath38"
       clipPathUnits="userSpaceOnUse"><path
         id="path36"
         d="m 4817.33,2919.69 c -62.64,0 -113.41,50.77 -113.41,113.41 0,62.63 50.77,113.4 113.41,113.4 62.64,0 113.41,-50.77 113.41,-113.4 0,-62.64 -50.77,-113.41 -113.41,-113.41 z m 147.6,151.64 c -3.6,13.9 -9.1,27.01 -16.21,39.07 l 16.5,24.81 -22.89,22.89 -22.88,22.88 -24.82,-16.5 c -12.06,7.11 -25.17,12.62 -39.06,16.21 l -5.88,29.18 h -32.36 -32.36 l -5.88,-29.18 c -13.89,-3.59 -27.01,-9.1 -39.07,-16.21 l -24.8,16.5 -22.89,-22.88 -22.88,-22.89 16.49,-24.81 c -7.11,-12.06 -12.61,-25.17 -16.2,-39.07 l -29.19,-5.87 v -32.36 -32.37 l 29.19,-5.88 c 3.59,-13.89 9.09,-27 16.2,-39.06 l -16.49,-24.81 22.88,-22.88 22.89,-22.89 24.8,16.49 c 12.06,-7.1 25.18,-12.61 39.07,-16.2 l 5.88,-29.18 h 32.36 32.36 l 5.88,29.18 c 13.89,3.59 27,9.1 39.06,16.2 l 24.82,-16.49 22.88,22.89 22.89,22.88 -16.5,24.81 c 7.11,12.06 12.61,25.17 16.21,39.06 l 29.18,5.88 v 32.37 32.36 z" /></clipPath><linearGradient
       id="linearGradient44"
       spreadMethod="pad"
       gradientTransform="matrix(353.555,0,0,-353.555,4640.55,3033.09)"
       gradientUnits="userSpaceOnUse"
       y2="0"
       x2="1"
       y1="0"
       x1="0"><stop
         id="stop40"
         offset="0"
         style="stop-opacity:1;stop-color:#ff9f55" /><stop
         id="stop42"
         offset="1"
         style="stop-opacity:1;stop-color:#ffd255" /></linearGradient><clipPath
       id="clipPath60"
       clipPathUnits="userSpaceOnUse"><path
         id="path58"
         d="m 1705.2,3466.96 h 2764 v 242.68 h -2764 z" /></clipPath><linearGradient
       id="linearGradient66"
       spreadMethod="pad"
       gradientTransform="matrix(2764,0,0,-2764,1705.2,3588.3)"
       gradientUnits="userSpaceOnUse"
       y2="0"
       x2="1"
       y1="0"
       x1="0"><stop
         id="stop62"
         offset="0"
         style="stop-opacity:1;stop-color:#ff9f55" /><stop
         id="stop64"
         offset="1"
         style="stop-opacity:1;stop-color:#ffd255" /></linearGradient></defs><g
     transform="matrix(1.3333333,0,0,-1.3333333,0,565.92)"
     id="g10"><g
       transform="scale(0.1)"
       id="g12"><path
         id="path14"
         style="fill:#f7f7f7;fill-opacity:1;fill-rule:nonzero;stroke:none"
         d="M 6070.85,0 H 0 V 4244.41 H 6070.85 V 0" /><g
         id="g16"><g
           clip-path="url(#clipPath22)"
           id="g18"><path
             id="path30"
             style="fill:url(#linearGradient28);fill-opacity:1;fill-rule:nonzero;stroke:none"
             d="m 4546.67,3340.93 c -136.63,0 -247.39,110.75 -247.39,247.37 0,136.62 110.76,247.38 247.39,247.38 136.62,0 247.37,-110.76 247.37,-247.38 0,-136.62 -110.75,-247.37 -247.37,-247.37 z m 321.94,330.78 c -7.83,30.3 -19.84,58.91 -35.35,85.22 l 35.98,54.11 -49.92,49.92 -49.92,49.92 -54.11,-35.98 c -26.31,15.51 -54.92,27.52 -85.22,35.35 l -12.81,63.65 h -70.59 -70.6 l -12.81,-63.65 c -30.31,-7.83 -58.92,-19.84 -85.22,-35.35 l -54.12,35.98 -49.92,-49.92 -49.92,-49.92 35.98,-54.11 c -15.5,-26.31 -27.52,-54.92 -35.34,-85.22 l -63.66,-12.81 v -70.6 -70.6 l 63.66,-12.81 c 7.82,-30.3 19.84,-58.91 35.34,-85.21 l -35.98,-54.12 49.92,-49.92 49.92,-49.92 54.12,35.98 c 26.3,-15.51 54.91,-27.52 85.22,-35.35 l 12.81,-63.65 h 70.6 70.59 l 12.81,63.65 c 30.3,7.83 58.91,19.84 85.22,35.35 l 54.11,-35.98 49.92,49.92 49.92,49.92 -35.98,54.12 c 15.51,26.3 27.52,54.91 35.35,85.21 l 63.65,12.81 v 70.6 70.6 l -63.65,12.81" /></g></g><g
         id="g32"><g
           clip-path="url(#clipPath38)"
           id="g34"><path
             id="path46"
             style="fill:url(#linearGradient44);fill-opacity:1;fill-rule:nonzero;stroke:none"
             d="m 4817.33,2919.69 c -62.64,0 -113.41,50.77 -113.41,113.41 0,62.63 50.77,113.4 113.41,113.4 62.64,0 113.41,-50.77 113.41,-113.4 0,-62.64 -50.77,-113.41 -113.41,-113.41 z m 147.6,151.64 c -3.6,13.9 -9.1,27.01 -16.21,39.07 l 16.5,24.81 -22.89,22.89 -22.88,22.88 -24.82,-16.5 c -12.06,7.11 -25.17,12.62 -39.06,16.21 l -5.88,29.18 h -32.36 -32.36 l -5.88,-29.18 c -13.89,-3.59 -27.01,-9.1 -39.07,-16.21 l -24.8,16.5 -22.89,-22.88 -22.88,-22.89 16.49,-24.81 c -7.11,-12.06 -12.61,-25.17 -16.2,-39.07 l -29.19,-5.87 v -32.36 -32.37 l 29.19,-5.88 c 3.59,-13.89 9.09,-27 16.2,-39.06 l -16.49,-24.81 22.88,-22.88 22.89,-22.89 24.8,16.49 c 12.06,-7.1 25.18,-12.61 39.07,-16.2 l 5.88,-29.18 h 32.36 32.36 l 5.88,29.18 c 13.89,3.59 27,9.1 39.06,16.2 l 24.82,-16.49 22.88,22.89 22.89,22.88 -16.5,24.81 c 7.11,12.06 12.61,25.17 16.21,39.06 l 29.18,5.88 v 32.37 32.36 l -29.18,5.87" /></g></g><path
         id="path48"
         style="fill:#aebecc;fill-opacity:1;fill-rule:nonzero;stroke:none"
         d="m 2913.56,822.172 h 347.29 V 1877.04 H 2913.56 V 822.172" /><path
         id="path50"
         style="fill:#f0f0f0;fill-opacity:1;fill-rule:nonzero;stroke:none"
         d="m 1740.29,1368.9 h 2693.84 c 84.23,0 152.53,68.29 152.53,152.53 v 1810.52 c 0,84.23 -68.3,152.52 -152.53,152.52 H 1740.29 c -84.25,0 -152.53,-68.29 -152.53,-152.52 V 1521.43 c 0,-84.24 68.28,-152.53 152.53,-152.53" /><path
         id="path52"
         style="fill:#ffffff;fill-opacity:1;fill-rule:nonzero;stroke:none"
         d="m 1705.2,1700.43 h 2764 v 2009.21 h -2764 V 1700.43" /><g
         id="g54"><g
           clip-path="url(#clipPath60)"
           id="g56"><path
             id="path68"
             style="fill:url(#linearGradient66);fill-opacity:1;fill-rule:nonzero;stroke:none"
             d="m 1705.2,3466.96 h 2764 v 242.68 h -2764 v -242.68" /></g></g><path
         id="path70"
         style="fill:#757575;fill-opacity:1;fill-rule:nonzero;stroke:none"
         d="m 2990.47,1548.73 c 0,-53.43 43.31,-96.73 96.73,-96.73 53.43,0 96.74,43.3 96.74,96.73 0,53.42 -43.31,96.73 -96.74,96.73 -53.42,0 -96.73,-43.31 -96.73,-96.73" /><path
         id="path72"
         style="fill:#dfe1e8;fill-opacity:1;fill-rule:nonzero;stroke:none"
         d="m 2560.83,3222.45 h 901.38 c 19.35,0 35.02,15.68 35.02,35.02 v 1.87 c 0,19.34 -15.67,35.02 -35.02,35.02 h -901.38 c -19.33,0 -35.01,-15.68 -35.01,-35.02 v -1.87 c 0,-19.34 15.68,-35.02 35.01,-35.02" /><path
         id="path74"
         style="fill:#dfe1e8;fill-opacity:1;fill-rule:nonzero;stroke:none"
         d="m 2560.83,3092.75 h 901.38 c 19.35,0 35.02,15.68 35.02,35.02 v 1.88 c 0,19.34 -15.67,35.02 -35.02,35.02 h -901.38 c -19.33,0 -35.01,-15.68 -35.01,-35.02 v -1.88 c 0,-19.34 15.68,-35.02 35.01,-35.02" /><path
         id="path76"
         style="fill:#dfe1e8;fill-opacity:1;fill-rule:nonzero;stroke:none"
         d="m 2560.83,2963.06 h 901.38 c 19.35,0 35.02,15.68 35.02,35.02 v 1.88 c 0,19.33 -15.67,35.01 -35.02,35.01 h -901.38 c -19.33,0 -35.01,-15.68 -35.01,-35.01 v -1.88 c 0,-19.34 15.68,-35.02 35.01,-35.02" /><path
         id="path78"
         style="fill:#dfe1e8;fill-opacity:1;fill-rule:nonzero;stroke:none"
         d="m 1989.85,2765.77 c -75.57,0 -137.04,-61.48 -137.04,-137.04 v -630.24 c 0,-75.57 61.47,-137.05 137.04,-137.05 h 1036.08 c 75.57,0 137.04,61.48 137.04,137.05 v 630.24 c 0,75.56 -61.47,137.04 -137.04,137.04 z M 3025.93,1841.8 H 1989.85 c -86.39,0 -156.68,70.29 -156.68,156.69 v 630.24 c 0,86.39 70.29,156.68 156.68,156.68 h 1036.08 c 86.4,0 156.68,-70.29 156.68,-156.68 v -630.24 c 0,-86.4 -70.28,-156.69 -156.68,-156.69" /><path
         id="path80"
         style="fill:#dfe1e8;fill-opacity:1;fill-rule:nonzero;stroke:none"
         d="m 2071.8,2547.88 h 872.18 c 38.22,0 69.2,30.98 69.2,69.2 v 13.16 c 0,38.22 -30.98,69.2 -69.2,69.2 H 2071.8 c -38.21,0 -69.2,-30.98 -69.2,-69.2 v -13.16 c 0,-38.22 30.99,-69.2 69.2,-69.2" /><path
         id="path82"
         style="fill:#f0f0f0;fill-opacity:1;fill-rule:nonzero;stroke:none"
         d="M 3868.42,782.371 H 2305.99 V 862 h 1562.43 v -79.629" /><path
         id="path84"
         style="fill:#eef0f7;fill-opacity:1;fill-rule:nonzero;stroke:none"
         d="m 4158.36,2578.33 c 0,-82.79 -44.74,-155.14 -111.37,-194.19 -13.39,-7.84 -27.68,-14.33 -42.65,-19.3 -1.35,-0.45 -2.7,-0.9 -4.06,-1.31 -21.11,-6.56 -43.55,-10.09 -66.81,-10.09 -35.92,0 -69.86,8.41 -99.98,23.38 -74.04,36.81 -124.93,113.21 -124.93,201.51 0,124.21 100.69,224.91 224.91,224.91 124.2,0 224.89,-100.7 224.89,-224.91" /><path
         id="path86"
         style="fill:#3c4145;fill-opacity:1;fill-rule:nonzero;stroke:none"
         d="m 3879.74,2602.08 c 0,0 -15.36,99.37 66.94,97.54 82.31,-1.84 81.21,-50.97 79.74,-99.75 -1.46,-48.77 -33,-45.1 2.57,-112.94 35.57,-67.84 -30.8,-67.84 -30.8,-67.84 l -51.51,70.77 -66.94,112.22" /><path
         id="path88"
         style="fill:#eea886;fill-opacity:1;fill-rule:nonzero;stroke:none"
         d="m 3937.68,2690.08 c 0,0 -55.74,-8.8 -57.94,-88 -2.21,-79.21 15.03,-96.08 63.81,-79.58 48.77,16.5 64.17,99.38 65.27,112.21 1.1,12.83 4.04,64.91 -71.14,55.37" /><path
         id="path90"
         style="fill:#e55353;fill-opacity:1;fill-rule:nonzero;stroke:none"
         d="m 4035.57,2414.58 c 0.16,-23.73 -12.53,-39.6 -31.23,-49.74 -1.35,-0.45 -2.7,-0.9 -4.06,-1.31 -21.11,-6.56 -43.55,-10.09 -66.81,-10.09 -35.92,0 -69.86,8.41 -99.98,23.38 -6.78,13.52 3.05,32.72 22.99,62.19 13.7,20.26 27.13,40.94 50.11,50.99 33.9,5.4 69.78,5.72 95.07,-8.56 20.14,-11.4 33.57,-32.07 33.91,-66.86" /><path
         id="path92"
         style="fill:#e55353;fill-opacity:1;fill-rule:nonzero;stroke:none"
         d="m 3867.41,2440.21 -25.64,-40.39 c 0.06,0.22 1.77,6.33 4.66,24.05 0.56,3.36 1.14,7.14 1.78,11.37 0.18,1.25 0.46,2.5 0.81,3.73 v 0 c 10.97,25.29 45.17,44.1 46.41,44.73 l -28.02,-43.49" /><path
         id="path94"
         style="fill:#eea886;fill-opacity:1;fill-rule:nonzero;stroke:none"
         d="m 4046.99,2384.14 c -13.39,-7.84 -27.68,-14.33 -42.65,-19.3 -1.35,-0.45 -2.7,-0.9 -4.06,-1.31 -5.69,14.67 -10.63,27.37 -11.69,30.66 -0.31,0.95 -1.05,2.73 -2.04,5.14 -4.62,11.23 -14.97,36.2 -15.1,55.74 -0.08,12.6 4.08,22.93 16.76,25.86 4.99,1.16 9.46,1.23 13.45,0.51 14.15,-2.57 22.41,-15.28 27.02,-26.56 0.07,-0.19 0.14,-0.38 0.21,-0.56 3.85,-9.59 5.05,-17.97 5.05,-17.97 0,0 0.23,-0.89 0.63,-2.48 0.8,-3.14 2.32,-9.11 4.29,-16.93 2.26,-8.98 5.1,-20.39 8.13,-32.8" /><path
         id="path96"
         style="fill:#eea886;fill-opacity:1;fill-rule:nonzero;stroke:none"
         d="m 3974.91,2558.17 c -4.84,-9.12 -9.94,-65.75 -9.94,-65.75 0,0 -68.18,-25.77 -61.2,-11.2 3.17,6.62 4.1,15.2 4.16,22.6 0.06,5.83 -0.42,10.93 -0.76,13.76 -0.17,1.49 -0.31,2.35 -0.31,2.35 0,0 72.87,47.38 68.05,38.24" /><path
         id="path98"
         style="fill:#3c4145;fill-opacity:1;fill-rule:nonzero;stroke:none"
         d="m 3914.95,2633.24 c 0,0 28.6,-46.56 54.63,-64.9 26.04,-18.34 12.84,-33.01 12.84,-33.01 0,0 67.93,143.02 3.35,152.92 -64.59,9.9 -104.19,10.64 -106.03,-86.17 0,0 29.34,31.9 35.21,31.16" /><path
         id="path100"
         style="fill:#a77860;fill-opacity:1;fill-rule:nonzero;stroke:none"
         d="m 3946.05,2523.41 c -10.47,-15.43 -38.12,-19.59 -38.12,-19.59 v 0 c 0.06,5.83 -0.42,10.93 -0.76,13.76 17.77,-3.42 38.88,5.83 38.88,5.83" /><path
         id="path102"
         style="fill:#bd4444;fill-opacity:1;fill-rule:nonzero;stroke:none"
         d="m 3849.14,2439.27 h -0.01 c 0,0 -1.48,-3.07 -2.7,-15.4 l 10.05,15.15 c 0,0 17.93,25.71 24.07,32.4 6.14,6.69 15.05,12.56 15.05,12.56 0,0 -35.74,-16.97 -46.46,-44.71" /><path
         id="path104"
         style="fill:#e55353;fill-opacity:1;fill-rule:nonzero;stroke:none"
         d="m 3984.8,2400.93 c 0,0 43.75,17.16 56.7,18.16 0,0 -8.8,70.26 -51.79,62.82 -42.98,-7.45 -4.91,-80.98 -4.91,-80.98" /><path
         id="path106"
         style="fill:#eea886;fill-opacity:1;fill-rule:nonzero;stroke:none"
         d="m 3906.59,2490 c 0,0 -32.12,-49.39 -21.25,-53.71 10.88,-4.32 69.73,5.76 94.76,52.68 0,0 -37.41,19.19 -73.51,1.03" /><path
         id="path108"
         style="fill:#eef0f7;fill-opacity:1;fill-rule:nonzero;stroke:none"
         d="m 4241.44,3234.48 c 0,-160.93 -130.35,-292.63 -292.63,-292.63 -161.66,0 -292.64,131.07 -292.64,292.63 0,161.63 131.01,292.65 292.64,292.65 161.61,0 292.63,-131.02 292.63,-292.65" /><path
         id="path110"
         style="fill:#d9c7c1;fill-opacity:1;fill-rule:nonzero;stroke:none"
         d="m 4139.42,3073 -21.58,-77.44 c -38.52,-27.29 -83.93,-45.51 -133.1,-51.53 -8.65,-1.07 -17.44,-1.74 -26.32,-2.03 -3.19,-0.11 -6.39,-0.15 -9.61,-0.15 -9.47,0 -18.83,0.45 -28.06,1.32 -10.33,0.99 -20.49,2.5 -30.45,4.54 -44.34,8.99 -85.03,28 -119.62,54.59 -4.14,25.6 -8.59,53.94 -12.49,80.44 21.5,8.01 89.96,31.29 133.16,45.9 0.61,0.21 1.21,0.4 1.8,0.6 0.95,0.33 1.88,0.65 2.81,0.95 2.55,0.87 5,1.7 7.33,2.48 2.37,0.8 4.62,1.55 6.71,2.28 8.86,2.98 15.09,5.08 17.33,5.82 0.02,0.01 0.02,0.01 0.02,0.01 0.58,0.2 0.89,0.3 0.89,0.3 l 0.5,-0.02 58.09,-4.36 9.75,-0.72 3.03,-0.23 c 0,0 0.45,-0.1 1.33,-0.33 3.5,-0.89 13.68,-3.56 27.16,-7.68 0,0 0.04,-0.01 0.06,-0.01 34.41,-10.53 90.22,-30.53 111.26,-54.73" /><path
         id="path112"
         style="fill:#eea987;fill-opacity:1;fill-rule:nonzero;stroke:none"
         d="m 3964.04,3379.79 c 0,0 69.68,-11.75 57.85,-120.83 -11.82,-109.08 -73.31,-99.46 -77.42,-99.3 -4.12,0.16 -61.87,-1.32 -64.91,132.05 0,0 -0.89,98.6 84.48,88.08" /><path
         id="path114"
         style="fill:#eea987;fill-opacity:1;fill-rule:nonzero;stroke:none"
         d="m 3994.57,3191.28 c 0,0 -2.41,-44.89 1.83,-54.66 4.24,-9.77 -55.94,-40.69 -93.34,-5.47 0,0 7.57,49.07 5.22,66.39 -2.35,17.33 86.29,-6.26 86.29,-6.26" /><path
         id="path116"
         style="fill:#eea987;fill-opacity:1;fill-rule:nonzero;stroke:none"
         d="m 4023.31,3289.79 c 0,0 7.73,8.08 10.44,-0.21 2.72,-8.3 -12.35,-45.06 -11.4,-46.73 0,0 -1.44,-3.19 -3.25,-1.4 -1.82,1.78 4.21,48.34 4.21,48.34" /><path
         id="path118"
         style="fill:#eea987;fill-opacity:1;fill-rule:nonzero;stroke:none"
         d="m 3880.36,3292.73 c 0,0 -7.4,8.39 -10.44,0.22 -3.06,-8.18 8.08,-44.89 9.47,-47.16 0,0 2.4,-3.77 4.29,-2.06 1.88,1.71 -3.32,49 -3.32,49" /><path
         id="path120"
         style="fill:#e8734d;fill-opacity:1;fill-rule:nonzero;stroke:none"
         d="m 4027.77,3299.06 c -2.4,-14.92 -4.67,-26.02 -4.67,-26.02 l -10.15,-13.24 c 0,0 0.61,29.28 -0.94,33.88 -0.59,1.75 -1.28,4.83 -1.99,8.18 -1.17,5.52 -2.36,11.74 -3.17,13.82 -1.31,3.31 -59.72,20.37 -111.74,-3.58 0,0 0.44,-4.51 0.41,-9.54 -0.02,-5.84 -0.66,-12.38 -3.34,-13.37 -4.99,-1.83 -2.91,-34.27 -2.91,-34.27 l -8.1,9.37 c 0,0 -2.35,16.94 -4.65,36.42 0,0 -0.02,0.05 -0.03,0.14 -0.52,4.54 -1.06,9.21 -1.56,13.85 -1.17,19.59 0.78,55.17 26.29,76.07 17.21,7.37 44.7,13.64 90.52,-0.39 0,0 10.51,-0.7 13.46,-3.54 28.54,-31.41 22.57,-87.78 22.57,-87.78" /><path
         id="path122"
         style="fill:#c78d71;fill-opacity:1;fill-rule:nonzero;stroke:none"
         d="m 3913.05,3174.24 c 0,0 11.12,-15.44 36.96,-14.86 25.83,0.59 37.06,14.05 37.06,14.05 0,0 -12.24,-25.58 -37.18,-25.3 -24.94,0.27 -36.84,26.11 -36.84,26.11" /><path
         id="path124"
         style="fill:#eea987;fill-opacity:1;fill-rule:nonzero;stroke:none"
         d="m 3895.96,3130.2 c 0,0 18.67,-32.5 54.1,-35.57 22.47,-1.94 41.93,26.54 51.05,40.53 0,0 -50.32,21.54 -105.15,-4.96" /><path
         id="path126"
         style="fill:#eddad3;fill-opacity:1;fill-rule:nonzero;stroke:none"
         d="m 3994.64,3145.44 c 0,0 -14.23,-18.66 -44.58,-38.63 l 18.87,-29.07 32.18,57.42 -6.47,10.28" /><path
         id="path128"
         style="fill:#eddad3;fill-opacity:1;fill-rule:nonzero;stroke:none"
         d="m 3904.48,3141.09 c 0,0 18.12,-22.72 45.58,-34.28 l -20.71,-29.95 -36.2,52.39 11.33,11.84" /><path
         id="path130"
         style="fill:#5073ab;fill-opacity:1;fill-rule:nonzero;stroke:none"
         d="m 3950.06,3106.81 16.18,-24.61 c 0,0 -16.99,-9.6 -32.78,0.61 l 16.6,24" /><path
         id="path132"
         style="fill:#323657;fill-opacity:1;fill-rule:nonzero;stroke:none"
         d="m 4158.11,3077.58 c -2.78,-10 -6.95,-24.55 -17.95,-64.51 -3.35,-2.9 -6.78,-5.74 -10.27,-8.47 -3.94,-3.12 -7.96,-6.12 -12.05,-9.04 -38.52,-27.29 -83.93,-45.51 -133.1,-51.53 4.34,101.3 16.37,191.13 16.37,191.13 9.48,-2.49 18.48,-4.97 26.99,-7.42 0,0 0.04,-0.01 0.06,-0.01 74.26,-21.31 111.91,-40.01 124.76,-47.11 0.09,-0.05 0.19,-0.11 0.28,-0.16 3.35,-1.87 4.91,-2.88 4.91,-2.88" /><path
         id="path134"
         style="fill:#323657;fill-opacity:1;fill-rule:nonzero;stroke:none"
         d="m 3890.3,2947.71 c -44.34,8.99 -85.03,28 -119.62,54.59 -10.44,8 -20.3,16.69 -29.55,26.01 -1.8,1.81 -3.58,3.65 -5.31,5.51 -5.13,21.75 -8.54,35.95 -8.75,36.87 l -0.01,0.05 c 0,0 36.2,23.79 164.29,57.97 0,0 0,-0.03 0,-0.07 0,-2.93 0.08,-85.1 -1.05,-180.93" /><path
         id="path136"
         style="fill:#5073ab;fill-opacity:1;fill-rule:nonzero;stroke:none"
         d="m 3959.32,3079.5 c -1.19,-26.68 -1.31,-78.44 -0.9,-137.5 -3.19,-0.11 -6.39,-0.15 -9.61,-0.15 -9.47,0 -18.83,0.45 -28.06,1.32 5.63,72.84 15.11,118.38 19.44,136.41 1.42,5.9 2.28,8.84 2.28,8.84 l 17.17,-2.83 c -0.12,-1.86 -0.22,-3.89 -0.32,-6.09" /><path
         id="path138"
         style="fill:#323657;fill-opacity:1;fill-rule:nonzero;stroke:none"
         d="m 4172.87,3046.22 c -10.02,-11.9 -20.95,-22.99 -32.71,-33.15 -3.35,-2.9 -6.78,-5.74 -10.27,-8.47 l 28.22,72.98 c 6.87,-5.8 12.41,-25.65 14.76,-31.36" /><path
         id="path140"
         style="fill:#323657;fill-opacity:1;fill-rule:nonzero;stroke:none"
         d="m 3741.13,3028.31 c -1.8,1.81 -3.58,3.65 -5.31,5.51 -6.56,6.93 -12.76,14.18 -18.59,21.74 3.31,7.9 6.6,13.2 9.83,15.18 l 0.01,-0.05 14.06,-42.38" /><path
         id="path142"
         style="fill:#f5f7ff;fill-opacity:1;fill-rule:nonzero;stroke:none"
         d="m 2181.91,3542.45 h -328.3 c -18.2,0 -32.96,14.76 -32.96,32.96 v 25.78 c 0,18.2 14.76,32.96 32.96,32.96 h 328.3 c 18.2,0 32.96,-14.76 32.96,-32.96 v -25.78 c 0,-18.2 -14.76,-32.96 -32.96,-32.96" /><path
         id="path144"
         style="fill:#eef0f7;fill-opacity:1;fill-rule:nonzero;stroke:none"
         d="m 4158.35,2042.38 c 0,-123.75 -100.24,-224.9 -224.89,-224.9 -124.43,0 -224.89,100.91 -224.89,224.9 0,124.2 100.69,224.9 224.89,224.9 124.2,0 224.89,-100.7 224.89,-224.9" /><path
         id="path146"
         style="fill:#949494;fill-opacity:1;fill-rule:nonzero;stroke:none"
         d="m 3933.46,1952.71 c -6.25,0 -11.33,5.08 -11.33,11.33 v 156.68 c 0,6.26 5.08,11.34 11.33,11.34 6.26,0 11.33,-5.08 11.33,-11.34 v -156.68 c 0,-6.25 -5.07,-11.33 -11.33,-11.33" /><path
         id="path148"
         style="fill:#949494;fill-opacity:1;fill-rule:nonzero;stroke:none"
         d="m 4011.8,2031.05 h -156.68 c -6.26,0 -11.33,5.08 -11.33,11.33 0,6.26 5.07,11.33 11.33,11.33 h 156.68 c 6.26,0 11.33,-5.07 11.33,-11.33 0,-6.25 -5.07,-11.33 -11.33,-11.33" /><path
         id="path150"
         style="fill:#ffbf55;fill-opacity:1;fill-rule:nonzero;stroke:none"
         d="m 3453.09,2564.65 h -122.66 c -24.37,0 -44.13,19.76 -44.13,44.14 v 122.66 c 0,24.38 19.76,44.14 44.13,44.14 h 122.66 c 24.39,0 44.14,-19.76 44.14,-44.14 v -122.66 c 0,-24.38 -19.75,-44.14 -44.14,-44.14" /><path
         id="path152"
         style="fill:#f3f3f3;fill-opacity:1;fill-rule:nonzero;stroke:none"
         d="m 3385.08,2623.66 -53.32,46.49 c -4.37,3.81 -4.82,10.45 -1.01,14.82 3.81,4.37 10.45,4.83 14.82,1.01 l 37.71,-32.87 53.77,59.98 c 3.87,4.32 10.51,4.68 14.83,0.81 4.32,-3.87 4.68,-10.52 0.81,-14.84 l -67.61,-75.4" /><path
         id="path154"
         style="fill:#ffbf55;fill-opacity:1;fill-rule:nonzero;stroke:none"
         d="m 3453.09,2294.36 h -122.66 c -24.37,0 -44.13,19.76 -44.13,44.13 v 122.66 c 0,24.38 19.76,44.14 44.13,44.14 h 122.66 c 24.39,0 44.14,-19.76 44.14,-44.14 v -122.66 c 0,-24.37 -19.75,-44.13 -44.14,-44.13" /><path
         id="path156"
         style="fill:#f3f3f3;fill-opacity:1;fill-rule:nonzero;stroke:none"
         d="m 3385.08,2353.36 -53.32,46.49 c -4.37,3.81 -4.82,10.45 -1.01,14.82 3.81,4.37 10.45,4.82 14.82,1.01 l 37.71,-32.87 53.77,59.98 c 3.87,4.32 10.51,4.68 14.83,0.81 4.32,-3.87 4.68,-10.51 0.81,-14.83 l -67.61,-75.41" /><path
         id="path158"
         style="fill:#ffbf55;fill-opacity:1;fill-rule:nonzero;stroke:none"
         d="m 3453.09,2024.06 h -122.66 c -24.37,0 -44.13,19.76 -44.13,44.14 v 122.65 c 0,24.38 19.76,44.14 44.13,44.14 h 122.66 c 24.39,0 44.14,-19.76 44.14,-44.14 V 2068.2 c 0,-24.38 -19.75,-44.14 -44.14,-44.14" /><path
         id="path160"
         style="fill:#131c24;fill-opacity:1;fill-rule:nonzero;stroke:none"
         d="m 2437.58,717.27 c 0,0 -10.72,-24.11 -19.76,-33.668 -9.06,-9.563 -43.68,-26.641 -43.87,-55.032 -0.2,-30.781 58.38,-22.238 81.29,-21.109 22.91,1.121 24.65,17.57 34.29,35 9.64,17.418 19.37,14.469 21.18,28.527 1.8,14.051 -7.38,45.524 -7.38,45.524 l -65.75,0.758" /><path
         id="path162"
         style="fill:#4f4946;fill-opacity:1;fill-rule:nonzero;stroke:none"
         d="m 2436.59,726.172 -1.68,-14.59 c 0,0 36.03,-12.09 70.09,-1.273 l -1.89,19.953 -66.52,-4.09" /><path
         id="path164"
         style="fill:#131c24;fill-opacity:1;fill-rule:nonzero;stroke:none"
         d="m 2860,717.27 c 0,0 10.72,-24.11 19.76,-33.668 9.05,-9.563 43.68,-26.641 43.87,-55.032 0.2,-30.781 -58.38,-22.238 -81.29,-21.109 -22.91,1.121 -24.65,17.57 -34.29,35 -9.65,17.418 -19.37,14.469 -21.18,28.527 -1.81,14.051 7.38,45.524 7.38,45.524 l 65.75,0.758" /><path
         id="path166"
         style="fill:#4f4946;fill-opacity:1;fill-rule:nonzero;stroke:none"
         d="m 2860.99,726.172 1.68,-14.59 c 0,0 -36.03,-12.09 -70.1,-1.273 l 1.9,19.953 66.52,-4.09" /><path
         id="path168"
         style="fill:#293e4f;fill-opacity:1;fill-rule:nonzero;stroke:none"
         d="m 2842.05,1114.67 c 0,-37.95 35.44,-384.408 35.44,-384.408 -4.08,-12.653 -91.04,-11.102 -104.6,-4.793 -13.58,6.332 -53,349.681 -55.51,387.941 -2.5,38.27 -59.13,371.05 -71.03,369.78 -11.89,-1.27 -68.26,-357.88 -77.76,-386.98 -9.49,-29.09 -52.57,-374.038 -52.57,-374.038 -29.84,-16.43 -100.79,4.137 -100.79,4.137 0,0 14.87,354.151 16.57,364.851 2.52,15.83 -0.12,58.47 6.79,153.13 6.18,84.67 28.49,269.02 42.63,368.85 0.5,3.56 0.98,6.96 1.45,10.23 2.77,19.43 4.85,33.71 5.85,40.55 0.43,2.96 0.66,4.54 0.66,4.54 3.81,1.63 7.81,3.15 11.96,4.53 99.35,33.29 288.48,31.17 288.48,31.17 0,0 2.61,-33.99 2.83,-35.65 0.25,-2 0.65,-5.14 1.16,-9.22 1.1,-8.8 2.75,-21.91 4.65,-37.13 0,-0.1 0.02,-0.21 0.03,-0.32 0.05,-0.46 0.11,-0.93 0.17,-1.39 6.68,-54.15 16.13,-133.41 15.25,-141.66 -1.36,-12.65 28.34,-326.17 28.34,-364.12" /><path
         id="path170"
         style="fill:#d9c7c1;fill-opacity:1;fill-rule:nonzero;stroke:none"
         d="m 2856.2,2237.04 -48.81,-175.13 c -1.68,-5.68 -3.67,-12.67 -5.79,-20.79 l -0.09,-0.31 c -0.02,-0.07 -0.05,-0.14 -0.06,-0.22 -8.14,-31.21 -18.22,-78.8 -21.23,-131.67 -2.03,-36.04 4.65,-180.93 4.65,-180.93 0,0 -73.87,-27.56 -184.4,-20.58 0,0 -118.88,2.78 -109.19,75.67 25.65,192.93 0.56,272.48 -2.8,291.85 0,0 -14.04,88.89 -25.59,167.4 33.45,12.46 174.27,65.32 174.27,65.32 l 74.04,-5.54 c 0,0 112.5,-27.7 145,-65.07" /><path
         id="path172"
         style="fill:#eea987;fill-opacity:1;fill-rule:nonzero;stroke:none"
         d="m 2674.3,2555.23 c 0,0 72.26,-12.2 60,-125.33 -12.25,-113.13 -76.04,-103.15 -80.31,-102.99 -4.27,0.16 -64.15,-1.36 -67.32,136.96 0,0 -0.91,102.27 87.63,91.36" /><path
         id="path174"
         style="fill:#eea987;fill-opacity:1;fill-rule:nonzero;stroke:none"
         d="m 2705.95,2359.71 c 0,0 -2.49,-46.56 1.92,-56.7 4.39,-10.13 -58.03,-42.19 -96.82,-5.67 0,0 7.84,50.89 5.41,68.86 -2.43,17.98 89.49,-6.49 89.49,-6.49" /><path
         id="path176"
         style="fill:#eea987;fill-opacity:1;fill-rule:nonzero;stroke:none"
         d="m 2735.77,2461.88 c 0,0 8.01,8.38 10.83,-0.22 2.81,-8.61 -12.81,-46.74 -11.83,-48.47 0,0 -1.48,-3.31 -3.37,-1.46 -1.88,1.86 4.37,50.15 4.37,50.15" /><path
         id="path178"
         style="fill:#eea987;fill-opacity:1;fill-rule:nonzero;stroke:none"
         d="m 2587.5,2464.93 c 0,0 -7.66,8.7 -10.83,0.22 -3.16,-8.48 8.39,-46.56 9.84,-48.91 0,0 2.48,-3.91 4.44,-2.13 1.96,1.77 -3.45,50.82 -3.45,50.82" /><path
         id="path180"
         style="fill:#e8734d;fill-opacity:1;fill-rule:nonzero;stroke:none"
         d="m 2740.39,2471.49 c -2.49,-15.48 -4.84,-26.98 -4.84,-26.98 l -10.52,-13.74 c 0,0 0.62,30.37 -0.98,35.14 -0.62,1.81 -1.33,5.01 -2.06,8.48 -1.21,5.72 -2.44,12.18 -3.29,14.34 -1.36,3.43 -61.94,21.12 -115.89,-3.71 0,0 0.46,-4.68 0.42,-9.89 -0.01,-6.06 -0.69,-12.85 -3.46,-13.87 -5.18,-1.89 -3.02,-35.55 -3.02,-35.55 l -8.41,9.71 c 0,0 -2.43,17.58 -4.82,37.78 0,0 -0.01,0.05 -0.03,0.15 -0.54,4.71 -1.09,9.56 -1.62,14.36 -1.2,20.32 0.81,57.22 27.27,78.9 17.86,7.64 66.65,15.34 93.89,-0.41 0,0 14.59,-9.07 17.65,-12 29.6,-32.58 19.71,-82.71 19.71,-82.71" /><path
         id="path182"
         style="fill:#c78d71;fill-opacity:1;fill-rule:nonzero;stroke:none"
         d="m 2621.42,2342.04 c 0,0 11.53,-16.02 38.33,-15.41 26.79,0.6 38.43,14.57 38.43,14.57 0,0 -12.69,-26.53 -38.56,-26.25 -25.87,0.28 -38.2,27.09 -38.2,27.09" /><path
         id="path184"
         style="fill:#eea987;fill-opacity:1;fill-rule:nonzero;stroke:none"
         d="m 2603.69,2296.36 c 0,0 19.36,-33.71 56.11,-36.89 23.31,-2.01 43.3,27.6 52.76,42.1 0,0 -52.01,22.27 -108.87,-5.21" /><path
         id="path186"
         style="fill:#eddad3;fill-opacity:1;fill-rule:nonzero;stroke:none"
         d="m 2706.04,2312.16 c 0,0 -14.78,-19.35 -46.24,-40.06 l 19.57,-30.16 33.37,59.78 -6.7,10.44" /><path
         id="path188"
         style="fill:#eddad3;fill-opacity:1;fill-rule:nonzero;stroke:none"
         d="m 2612.52,2307.65 c 0,0 18.8,-23.56 47.28,-35.55 l -21.48,-31.06 -37.33,53.04 11.53,13.57" /><path
         id="path190"
         style="fill:#5073ab;fill-opacity:1;fill-rule:nonzero;stroke:none"
         d="m 2659.8,2272.1 16.77,-25.52 c 0,0 -17.61,-9.97 -33.99,0.63 l 17.22,24.89" /><path
         id="path192"
         style="fill:#1a2833;fill-opacity:1;fill-rule:nonzero;stroke:none"
         d="m 2487.23,1694.29 c 0,0 90.67,-33.44 295.71,-1.95 l -2.72,37.13 c 0,0 -118.86,-35.06 -289.37,-5.03 l -3.62,-30.15" /><path
         id="path194"
         style="fill:#385369;fill-opacity:1;fill-rule:nonzero;stroke:none"
         d="m 2712.74,2301.72 c 0,0 -21.2,-158.59 -18.29,-295.2 2.9,-136.6 47.26,-392.76 47.26,-392.76 0,0 79.08,7.74 98.71,32.45 0,0 -45.38,246.54 -44.09,283.08 1.29,36.55 58.16,311.33 58.16,311.33 0,0 -22.23,29.64 -141.75,61.1" /><path
         id="path196"
         style="fill:#385369;fill-opacity:1;fill-rule:nonzero;stroke:none"
         d="m 2599.27,2293.43 c 0,0 -0.19,-150.3 -3.09,-286.91 -2.91,-136.6 -20.9,-390.91 -20.9,-390.91 0,0 -92.77,13.21 -112.39,37.92 0,0 32.69,239.22 31.4,275.76 -1.29,36.55 -41.93,308.64 -41.93,308.64 0,0 14.05,20.05 146.91,55.5" /><path
         id="path198"
         style="fill:#3e5e78;fill-opacity:1;fill-rule:nonzero;stroke:none"
         d="m 2666.6,1676.63 h -55.72 v 41.41 h 55.72 v -41.41" /><path
         id="path200"
         style="fill:#5073ab;fill-opacity:1;fill-rule:nonzero;stroke:none"
         d="m 2651.93,2253.03 c 0,0 -24.88,-84.92 -27.06,-253.58 -2.17,-168.67 3.05,-217.03 3.05,-217.03 l 19.43,-38.44 25.89,40.11 c 0,0 -8.3,388.11 -3.5,465.99 l -17.81,2.95" /><path
         id="path202"
         style="fill:#eea886;fill-opacity:1;fill-rule:nonzero;stroke:none"
         d="m 2755.8,2015.67 c 0,0 36.82,18.53 41.93,21.79 5.11,3.26 66.62,12.37 74.36,12.13 7.76,-0.26 8.1,-6.43 5.9,-8.63 -2.18,-2.19 -63.67,-12.29 -64.72,-13.76 -1.06,-1.47 5.19,-0.92 5.19,-0.92 0,0 66.27,1.01 70.9,-3.43 4.64,-4.44 -0.68,-8.64 -3.37,-9.75 0,0 6.04,-6.93 -0.94,-9.78 -6.96,-2.86 -16.39,-4.68 -16.39,-4.68 0,0 8.76,-4.51 3,-8.53 -5.77,-4.03 -75.98,-25.77 -75.98,-25.77 0,0 -26.11,49.92 -39.88,51.33" /><path
         id="path204"
         style="fill:#385369;fill-opacity:1;fill-rule:nonzero;stroke:none"
         d="m 2882.33,1888.75 c -47.86,-11.43 -158.49,7.12 -200.64,16.41 -8.93,1.97 -19.02,4.04 -29.39,6.07 h -0.02 c -17.25,3.39 -35.23,6.69 -49.84,9.28 h -0.01 c -17.99,3.22 -30.84,5.37 -30.84,5.37 0,0 232.16,52.16 240.74,52.16 8.56,0 -21.44,135.73 -21.44,135.73 0,0 -29.9,113.66 -14.37,158.34 0,0 58.9,-17.87 77.97,-31.49 10.63,-7.59 18.45,-56.89 25.7,-90.42 9.19,-42.48 30.53,-139.24 32.95,-159.66 2.22,-18.61 17.06,-90.37 -30.81,-101.79" /><path
         id="path206"
         style="fill:#385369;fill-opacity:1;fill-rule:nonzero;stroke:none"
         d="m 2527.08,2271.55 c 0,0 -71.3,-24.36 -74.72,-33.62 -14.43,-39.18 -21.13,-82 -25.79,-99.16 -5.7,-20.97 -18.6,-83.69 -21.93,-104.14 -4.22,-26.08 -12.35,-118.47 -8.81,-132.72 4.47,-17.99 46.87,-16.68 69.73,-13.12 22.85,3.59 340.51,80.87 340.51,80.87 0,0 -18.12,59.1 -19.03,64.32 0,0 -244.87,-27.99 -276.06,-34.64 -17.82,-3.8 -21.67,-5.25 -21.67,-5.25 0,0 54.01,221.64 37.77,277.46" /><path
         id="path208"
         style="fill:#eea886;fill-opacity:1;fill-rule:nonzero;stroke:none"
         d="m 2569.26,2007.02 c 0,0 -31.97,26.02 -36.25,30.31 -4.28,4.29 -62.39,26.43 -70.01,27.85 -7.62,1.44 -8.93,-4.68 -8.35,-7.68 1.02,-5.32 60.26,-25.17 60.98,-26.84 0.71,-1.66 -5.27,0.21 -5.27,0.21 0,0 -64.51,15.27 -69.98,11.93 -5.48,-3.33 -1.2,-8.57 1.19,-10.24 0,0 -7.39,-5.47 -1.19,-9.76 6.19,-4.29 15,-8.09 15,-8.09 0,0 -9.53,-2.53 -4.76,-7.69 4.76,-5.18 38.69,-12.93 38.69,-12.93 0,0 66.2,14.53 79.95,12.93" /><path
         id="path210"
         style="fill:#263947;fill-opacity:1;fill-rule:nonzero;stroke:none"
         d="m 2760,1958.48 -107.7,-47.25 h -0.02 c -17.25,3.39 -35.23,6.69 -49.84,9.28 l 157.56,37.97" /><path
         id="path212"
         style="fill:#e8734d;fill-opacity:1;fill-rule:nonzero;stroke:none"
         d="m 2708.08,2556.04 c 0,0 17.93,9.03 27.62,-2.8 9.7,-11.84 10.74,-76.23 -1.1,-100.94 -11.83,-24.71 1.89,87.74 -26.52,103.74" /><path
         id="path214"
         style="fill:#706865;fill-opacity:1;fill-rule:nonzero;stroke:none"
         d="m 2025.63,460.309 h -32.06 V 1917.76 h 32.06 V 460.309" /><path
         id="path216"
         style="fill:#bdafaa;fill-opacity:1;fill-rule:nonzero;stroke:none"
         d="m 2070.7,700.871 h -862.56 c -53.15,0 -96.24,43.078 -96.24,96.238 V 2430.4 c 0,53.15 43.09,96.24 96.24,96.24 h 862.56 c 53.15,0 96.25,-43.09 96.25,-96.24 V 797.109 c 0,-53.16 -43.1,-96.238 -96.25,-96.238" /><path
         id="path218"
         style="fill:#ffffff;fill-opacity:1;fill-rule:nonzero;stroke:none"
         d="m 2042.91,772.199 h -806.97 c -52.51,0 -95.09,42.582 -95.09,95.09 V 2402.15 c 0,52.51 42.58,95.09 95.09,95.09 h 806.97 c 52.51,0 95.08,-42.58 95.08,-95.09 V 867.289 c 0,-52.508 -42.57,-95.09 -95.08,-95.09" /><path
         id="path220"
         style="fill:#706865;fill-opacity:1;fill-rule:nonzero;stroke:none"
         d="m 1796.62,2469.49 h -314.39 v 70.99 h 314.39 v -70.99" /><path
         id="path222"
         style="fill:#b5deff;fill-opacity:1;fill-rule:nonzero;stroke:none"
         d="m 1307.78,1379.95 c -45.04,0 -81.68,-36.65 -81.68,-81.69 V 934.922 c 0,-45.043 36.64,-81.68 81.68,-81.68 h 638.26 c 45.04,0 81.69,36.637 81.69,81.68 v 363.338 c 0,45.04 -36.65,81.69 -81.69,81.69 z m 638.26,-538.79 h -638.26 c -51.7,0 -93.77,42.059 -93.77,93.762 v 363.338 c 0,51.7 42.07,93.77 93.77,93.77 h 638.26 c 51.71,0 93.77,-42.07 93.77,-93.77 V 934.922 c 0,-51.703 -42.06,-93.762 -93.77,-93.762" /><path
         id="path224"
         style="fill:#323657;fill-opacity:1;fill-rule:nonzero;stroke:none"
         d="m 1373.37,1720.01 c -0.04,0.01 -0.08,0.02 -0.14,0 0.62,-0.27 0.71,-0.3 0.14,0" /><path
         id="path226"
         style="fill:#b5deff;fill-opacity:1;fill-rule:nonzero;stroke:none"
         d="m 1927.66,1955.2 c -50.69,0 -91.92,-41.24 -91.92,-91.93 0,-50.69 41.23,-91.93 91.92,-91.93 50.69,0 91.92,41.24 91.92,91.93 0,50.69 -41.23,91.93 -91.92,91.93 z m 0,-195.95 c -57.35,0 -104.01,46.66 -104.01,104.02 0,57.35 46.66,104.01 104.01,104.01 57.35,0 104.01,-46.66 104.01,-104.01 0,-57.36 -46.66,-104.02 -104.01,-104.02" /><path
         id="path228"
         style="fill:#b5deff;fill-opacity:1;fill-rule:nonzero;stroke:none"
         d="m 1927.66,1715.52 c -50.69,0 -91.92,-41.24 -91.92,-91.93 0,-50.68 41.23,-91.92 91.92,-91.92 50.69,0 91.92,41.24 91.92,91.92 0,50.69 -41.23,91.93 -91.92,91.93 z m 0,-195.93 c -57.35,0 -104.01,46.66 -104.01,104 0,57.36 46.66,104.02 104.01,104.02 57.35,0 104.01,-46.66 104.01,-104.02 0,-57.34 -46.66,-104 -104.01,-104" /><path
         id="path230"
         style="fill:#b5deff;fill-opacity:1;fill-rule:nonzero;stroke:none"
         d="m 1458.86,1858.64 c -8.58,0 -17.26,0.42 -25.83,1.23 -9.48,0.91 -18.91,2.3 -28.04,4.17 -39.75,8.07 -77.84,25.45 -110.14,50.26 -9.56,7.34 -18.72,15.4 -27.2,23.95 -1.75,1.77 -3.4,3.48 -4.91,5.1 -5.97,6.3 -11.72,13.04 -17.09,19.99 -36.78,47.53 -56.23,104.49 -56.23,164.73 0,148.57 120.88,269.44 269.44,269.44 v -12.08 c -141.9,0 -257.35,-115.45 -257.35,-257.36 0,-57.54 18.57,-111.95 53.7,-157.33 5.13,-6.65 10.62,-13.07 16.34,-19.11 1.45,-1.57 3.02,-3.2 4.68,-4.87 8.1,-8.17 16.84,-15.87 25.98,-22.87 30.85,-23.71 67.22,-40.31 105.19,-48.01 8.72,-1.78 17.73,-3.12 26.77,-3.98 8.19,-0.77 16.49,-1.17 24.69,-1.17 3,0 5.75,0.05 8.45,0.14 7.81,0.25 15.6,0.84 23.15,1.79 42,5.13 82.46,20.79 117.04,45.29 3.65,2.6 7.21,5.28 10.6,7.95 2.94,2.31 5.98,4.81 9.04,7.47 10.31,8.91 19.98,18.72 28.76,29.15 38.89,46.25 60.31,105.03 60.31,165.55 0,12.65 -0.93,25.35 -2.76,37.77 l 11.97,1.75 c 1.9,-12.99 2.88,-26.29 2.88,-39.52 0,-63.36 -22.44,-124.91 -63.15,-173.33 -9.19,-10.92 -19.32,-21.19 -30.11,-30.53 -3.2,-2.76 -6.39,-5.39 -9.47,-7.8 -3.52,-2.78 -7.25,-5.58 -11.06,-8.3 -36.23,-25.67 -78.61,-42.07 -122.57,-47.45 -7.91,-0.99 -16.07,-1.61 -24.23,-1.88 -2.83,-0.09 -5.72,-0.14 -8.85,-0.14" /><path
         id="path232"
         style="fill:#b5deff;fill-opacity:1;fill-rule:nonzero;stroke:none"
         d="m 1646.83,1985.41 c -0.91,1.19 -1.79,2.16 -2.63,2.94 -0.26,0.35 -0.69,0.72 -1.37,1.11 -0.09,0.07 -0.17,0.1 -0.25,0.16 l -0.02,-0.03 c -50.22,27.78 -140.86,50.41 -140.86,50.41 -2.62,6.04 -2.42,27.01 -2.04,39.54 9.41,10.91 17.92,27.99 22.7,54.61 1.52,-1.13 2.68,1.46 2.68,1.46 -0.84,1.5 12.72,34.59 10.28,42.05 -1.38,4.22 -4.2,3.73 -6.39,2.52 0.32,1.91 0.65,3.91 1,6.02 0,0 5.37,50.73 -20.32,79 -2.64,2.55 -12.11,3.18 -12.11,3.18 -41.24,12.63 -65.98,7 -81.47,0.36 -22.96,-18.81 -24.71,-50.83 -23.66,-68.47 0.46,-4.17 0.94,-8.37 1.4,-12.46 0.01,-0.08 0.02,-0.13 0.02,-0.13 0.19,-1.6 0.38,-3.2 0.58,-4.75 -2.15,1.31 -4.96,1.94 -6.51,-2.24 -2.75,-7.35 7.28,-40.4 8.53,-42.44 0,0 2.15,-3.39 3.85,-1.85 v 0.01 c 4.75,-29.03 13.3,-46.9 22.27,-57.92 -0.9,-16.29 -3.81,-36.66 -4.61,-42.05 0,0 -0.01,0 -0.01,-0.01 -21.06,-6.64 -126.66,-34.73 -158.62,-55.73 -2.9,-1.78 -5.86,-6.55 -8.84,-13.66 5.25,-6.81 10.82,-13.33 16.72,-19.57 1.57,-1.67 3.17,-3.33 4.79,-4.96 8.32,-8.39 17.2,-16.22 26.6,-23.41 31.13,-23.93 67.75,-41.05 107.66,-49.14 8.97,-1.83 18.12,-3.2 27.4,-4.08 8.31,-0.79 16.74,-1.2 25.26,-1.2 2.9,0 5.78,0.04 8.65,0.15 7.99,0.25 15.91,0.87 23.7,1.83 44.25,5.42 85.12,21.8 119.79,46.37 3.68,2.63 7.3,5.34 10.85,8.14 3.14,2.46 6.22,5.01 9.24,7.62 10.58,9.16 20.42,19.13 29.43,29.84 -4.97,12.12 -9.62,21.45 -13.69,26.78" /><path
         id="path234"
         style="fill:#e2d2ca;fill-opacity:1;fill-rule:nonzero;stroke:none"
         d="m 4472.39,1397.81 h 312.09 v -18.52 h -312.09 v 18.52" /><path
         id="path236"
         style="fill:#706865;fill-opacity:1;fill-rule:nonzero;stroke:none"
         d="m 4742.65,488.531 h -27.34 v 842.549 h 27.34 V 488.531" /><path
         id="path238"
         style="fill:#ccbdb7;fill-opacity:1;fill-rule:nonzero;stroke:none"
         d="m 4304.29,1403.07 h 216.94 v -26.46 h -216.94 v 26.46" /><path
         id="path240"
         style="fill:#4667a8;fill-opacity:1;fill-rule:nonzero;stroke:none"
         d="m 4371.68,1379.29 h 82.15 v 249.5 h -82.15 v -249.5" /><path
         id="path242"
         style="fill:#b59074;fill-opacity:1;fill-rule:nonzero;stroke:none"
         d="m 3694.48,1331.08 h 1201.96 v 47.9 H 3694.48 v -47.9" /><path
         id="path244"
         style="fill:#323657;fill-opacity:1;fill-rule:nonzero;stroke:none"
         d="m 5127.12,1668.93 c 0,0 13.15,-184.34 -22.88,-206.41 -22.57,-13.82 -112.54,-60.44 -109.86,-69.18 2.67,-8.74 50.8,-77.79 50.8,-77.79 0,0 172.81,113.8 178.39,149.67 5.44,35.04 -8.51,269.93 -32.26,280.75 -17.79,8.11 -27.18,1.41 -49.61,-15.25 -31.46,-23.35 -14.58,-61.79 -14.58,-61.79" /><path
         id="path246"
         style="fill:#ead8cf;fill-opacity:1;fill-rule:nonzero;stroke:none"
         d="m 4812.15,1616.29 -15.23,5.64 c 0,0 18.99,44.59 27.28,43.52 9.55,-1.25 21.48,-4.41 21.48,-4.41 l -33.53,-44.75" /><path
         id="path248"
         style="fill:#da9b5b;fill-opacity:1;fill-rule:nonzero;stroke:none"
         d="m 4808.68,1608.61 c 1.94,1.44 32.37,59.82 32.37,59.82 l 65.02,-8.82 -35.14,-69.16 -62.25,18.16" /><path
         id="path250"
         style="fill:#424773;fill-opacity:1;fill-rule:nonzero;stroke:none"
         d="m 4914.49,603.57 c 0,0 5.38,-37.3 6.05,-42.91 0.67,-5.609 59.78,3.301 59.78,3.301 l 4.78,44.41 c 0,0 -63.22,0.461 -70.61,-4.801" /><path
         id="path252"
         style="fill:#292c47;fill-opacity:1;fill-rule:nonzero;stroke:none"
         d="m 4919.91,565.41 c 0,0 -18.73,-22.48 -36.85,-32.281 -18.1,-9.789 -46.57,-13.668 -57.28,-23.82 -7.74,-7.309 -28.17,-38.84 47.07,-38.188 75.23,0.629 111.5,-4.449 119.56,7.629 8.06,12.082 -11.66,89.18 -11.66,89.18 0,0 -17.82,-6.41 -60.84,-2.52" /><path
         id="path254"
         style="fill:#424773;fill-opacity:1;fill-rule:nonzero;stroke:none"
         d="m 4535.78,603.211 c 0,0 5.37,-37.301 6.04,-42.902 0.68,-5.61 59.79,3.3 59.79,3.3 l 4.78,44.403 c 0,0 -63.22,0.457 -70.61,-4.801" /><path
         id="path256"
         style="fill:#292c47;fill-opacity:1;fill-rule:nonzero;stroke:none"
         d="m 4541.2,565.039 c 0,0 -18.73,-22.469 -36.85,-32.258 -18.11,-9.812 -84.77,-17.851 -95.49,-27.992 -7.72,-7.32 -20.58,-36.789 85.27,-34.027 75.2,1.949 111.5,-4.461 119.57,7.617 8.05,12.09 -11.67,89.203 -11.67,89.203 0,0 -16.78,-6.852 -60.83,-2.543" /><path
         id="path258"
         style="fill:#292c47;fill-opacity:1;fill-rule:nonzero;stroke:none"
         d="m 5105.15,1247.92 c 0,0 -214.91,-36.37 -263.45,-44 -48.53,-7.62 -311.71,-73.1 -344.62,-93.05 -26.21,-15.89 13.74,-397.39 23.06,-542.94 h 103.66 l 7.52,436.61 c 124.4,-3.12 213.16,29.1 303.74,15.34 90.59,-13.76 166.11,-33.31 223.67,43.9 0,0 2.13,167.27 -53.58,184.14" /><path
         id="path260"
         style="fill:#292c47;fill-opacity:1;fill-rule:nonzero;stroke:none"
         d="m 4893.33,567.582 101.02,6.238 9.84,430.72 c 53.55,-1.34 71.91,2.06 115.25,7.31 l 81.56,189.58 c -71.48,-14.29 -300.51,-72.05 -331.04,-90.56 -26.21,-15.9 14.04,-397.741 23.37,-543.288" /><path
         id="path262"
         style="fill:#eea886;fill-opacity:1;fill-rule:nonzero;stroke:none"
         d="m 5006.22,2053.46 c 0,0 -78.78,21.77 -108.83,-39.38 -30.06,-61.16 -16.44,-177.1 23.27,-188.01 39.71,-10.91 96.8,1.65 113.28,39.72 16.48,38.05 29.63,92.15 25.68,127.16 -3.94,35.03 -32.48,52.13 -53.4,60.51" /><path
         id="path264"
         style="fill:#eea886;fill-opacity:1;fill-rule:nonzero;stroke:none"
         d="m 4941.25,1838.28 c 0,0 0.86,-46.52 -4.26,-56.43 -5.14,-9.92 109.69,-7.43 109.69,-7.43 0,0 -18.09,55.85 -7.83,103.44 10.16,47.1 -97.6,-39.58 -97.6,-39.58" /><path
         id="path266"
         style="fill:#3a3f47;fill-opacity:1;fill-rule:nonzero;stroke:none"
         d="m 5045.03,1895.46 c 0,0 -6.13,-12.48 -35.86,-10.45 -29.72,2.01 -68.92,37.87 -81.54,41.07 -12.62,3.2 -13.37,10.38 -13.37,10.38 l -6.67,-11.87 -12.93,-1.97 c 0,0 8.78,35.94 -10.36,48.6 -19.14,12.65 8.62,114.57 105.54,89.99 0,0 73.96,-13.55 74.96,-54.86 1,-41.3 -5.41,-89.01 -19.77,-110.89" /><path
         id="path268"
         style="fill:#e2d2ca;fill-opacity:1;fill-rule:nonzero;stroke:none"
         d="m 4930.94,1783.04 c 0,0 0.32,18.95 8.91,20.76 8.59,1.82 90.26,13.05 100.81,8.91 l 4.52,-25.01 c 0,0 -20.31,-12.5 -114.24,-4.66" /><path
         id="path270"
         style="fill:#eea886;fill-opacity:1;fill-rule:nonzero;stroke:none"
         d="m 4907.31,1944.93 c 2.21,15.52 19.86,33.37 29.97,9.18 10.11,-24.19 -6.83,-59.41 -18.16,-57.52 -11.35,1.88 -14.8,27.27 -11.81,48.34" /><path
         id="path272"
         style="fill:#323657;fill-opacity:1;fill-rule:nonzero;stroke:none"
         d="m 4588.85,1559.2 c 0.04,0.02 0.09,0.03 0.14,0.01 -0.59,-0.25 -0.67,-0.27 -0.14,-0.01" /><path
         id="path274"
         style="fill:#3a3f47;fill-opacity:1;fill-rule:nonzero;stroke:none"
         d="m 5029.19,2042.37 c 0,0 96.06,4.51 16.77,-145.43 l -16.77,145.43" /><path
         id="path276"
         style="fill:#918783;fill-opacity:1;fill-rule:nonzero;stroke:none"
         d="m 5243.22,516.492 -7.15,-20.113 -301.91,93.551 14.47,40.699 294.59,-114.137" /><path
         id="path278"
         style="fill:#918783;fill-opacity:1;fill-rule:nonzero;stroke:none"
         d="m 4923.8,604.25 h 34.32 V 932.5 H 4923.8 V 604.25" /><path
         id="path280"
         style="fill:#5e5854;fill-opacity:1;fill-rule:nonzero;stroke:none"
         d="m 4839.76,930.59 h 202.39 v 19.34 h -202.39 v -19.34" /><path
         id="path282"
         style="fill:#918783;fill-opacity:1;fill-rule:nonzero;stroke:none"
         d="m 4636.05,516.492 7.15,-20.113 301.91,93.551 -13.27,43.261 -295.79,-116.699" /><path
         id="path284"
         style="fill:#918783;fill-opacity:1;fill-rule:nonzero;stroke:none"
         d="M 4848.76,498.539 V 475.16 l 96.35,114.77 -13.27,43.261 -83.08,-134.652" /><path
         id="path286"
         style="fill:#bfb2ac;fill-opacity:1;fill-rule:nonzero;stroke:none"
         d="m 4607.84,488.531 c 0,-15.582 12.62,-28.222 28.21,-28.222 15.59,0 28.21,12.64 28.21,28.222 0,15.59 -12.62,28.211 -28.21,28.211 -15.59,0 -28.21,-12.621 -28.21,-28.211" /><path
         id="path288"
         style="fill:#bfb2ac;fill-opacity:1;fill-rule:nonzero;stroke:none"
         d="m 4846.37,488.531 c 0,-15.582 12.63,-28.222 28.21,-28.222 15.59,0 28.22,12.64 28.22,28.222 0,15.59 -12.63,28.211 -28.22,28.211 -15.58,0 -28.21,-12.621 -28.21,-28.211" /><path
         id="path290"
         style="fill:#bfb2ac;fill-opacity:1;fill-rule:nonzero;stroke:none"
         d="m 5215,488.531 c 0,-15.582 12.63,-28.222 28.22,-28.222 15.57,0 28.21,12.64 28.21,28.222 0,15.59 -12.64,28.211 -28.21,28.211 -15.59,0 -28.22,-12.621 -28.22,-28.211" /><path
         id="path292"
         style="fill:#e2d2ca;fill-opacity:1;fill-rule:nonzero;stroke:none"
         d="m 4736.06,949.93 h 407.15 c 19.97,0 36.17,16.199 36.17,36.172 v 0.937 c 0,19.971 -16.2,36.161 -36.17,36.161 h -407.15 c -19.98,0 -36.17,-16.19 -36.17,-36.161 v -0.937 c 0,-19.973 16.19,-36.172 36.17,-36.172" /><path
         id="path294"
         style="fill:#706865;fill-opacity:1;fill-rule:nonzero;stroke:none"
         d="m 3848.26,488.531 h 27.35 v 842.549 h -27.35 V 488.531" /><path
         id="path296"
         style="fill:#5f8be3;fill-opacity:1;fill-rule:nonzero;stroke:none"
         d="m 4094.17,1508.61 h 637.19 c 19.92,0 36.08,16.15 36.08,36.07 v 428.27 c 0,19.92 -16.16,36.07 -36.08,36.07 h -637.19 c -19.94,0 -36.09,-16.15 -36.09,-36.07 v -428.27 c 0,-19.92 16.15,-36.07 36.09,-36.07" /><path
         id="path298"
         style="fill:#f5f7ff;fill-opacity:1;fill-rule:nonzero;stroke:none"
         d="m 4085.86,1587.03 h 653.8 v 394.94 h -653.8 v -394.94" /><path
         id="path300"
         style="fill:#cecfd6;fill-opacity:1;fill-rule:nonzero;stroke:none"
         d="m 4085.86,1950.54 h 653.8 v 31.43 h -653.8 v -31.43" /><path
         id="path302"
         style="fill:#cecfd6;fill-opacity:1;fill-rule:nonzero;stroke:none"
         d="m 4132.37,1611.34 h 34.16 c 12.33,0 22.33,10 22.33,22.34 v 270.89 c 0,12.33 -10,22.33 -22.33,22.33 h -34.16 c -12.34,0 -22.34,-10 -22.34,-22.33 v -270.89 c 0,-12.34 10,-22.34 22.34,-22.34" /><path
         id="path304"
         style="fill:#cecfd6;fill-opacity:1;fill-rule:nonzero;stroke:none"
         d="m 4589.44,1897.67 h 119.67 c 6.66,0 12.06,5.39 12.06,12.05 v 5.12 c 0,6.66 -5.4,12.06 -12.06,12.06 h -119.67 c -6.66,0 -12.06,-5.4 -12.06,-12.06 v -5.12 c 0,-6.66 5.4,-12.05 12.06,-12.05" /><path
         id="path306"
         style="fill:#cecfd6;fill-opacity:1;fill-rule:nonzero;stroke:none"
         d="m 4602.28,1603.29 h 93.98 c 13.75,0 24.91,11.15 24.91,24.91 v 224.97 c 0,13.75 -11.16,24.91 -24.91,24.91 h -93.98 c -13.75,0 -24.9,-11.16 -24.9,-24.91 V 1628.2 c 0,-13.76 11.15,-24.91 24.9,-24.91" /><path
         id="path308"
         style="fill:#59524f;fill-opacity:1;fill-rule:nonzero;stroke:none"
         d="m 4389.88,1549.14 c 0,-12.64 10.24,-22.88 22.88,-22.88 12.64,0 22.88,10.24 22.88,22.88 0,12.64 -10.24,22.89 -22.88,22.89 -12.64,0 -22.88,-10.25 -22.88,-22.89" /><path
         id="path310"
         style="fill:#314875;fill-opacity:1;fill-rule:nonzero;stroke:none"
         d="m 4265.91,1378.34 v 8.9 c 0,0 12.52,55.39 101.08,55.39 88.55,0 86.76,-64.29 86.76,-64.29 h -187.84" /><path
         id="path312"
         style="fill:#eea886;fill-opacity:1;fill-rule:nonzero;stroke:none"
         d="m 4454.82,1434.4 c 0,0 -19.24,1.49 -26.29,5.75 -7.04,4.25 -49.21,32.61 -59.12,28.07 -9.9,-4.54 -75.82,-24.73 -73.53,-34.38 2.29,-9.64 8.39,-8.71 13.04,-7 4.65,1.71 52.51,11.76 56.74,10.07 0,0 -47.01,-17.16 -47.21,-29.67 -0.18,-12.52 9.85,-15.56 14.3,-20.29 4.46,-4.74 9.81,-16.5 21.93,-17.39 12.11,-0.9 71.23,19.66 83.4,20.61 12.17,0.93 34.7,-0.76 36.23,1.22 1.52,1.98 -19.49,43.01 -19.49,43.01" /><path
         id="path314"
         style="fill:#323657;fill-opacity:1;fill-rule:nonzero;stroke:none"
         d="m 4805.04,1756.79 c 61.34,10.78 125.9,26.25 125.9,26.25 l 114.24,4.66 c 0,0 104.84,-23.08 146.13,-41.73 3.92,-1.77 3.94,-93.53 14.68,-117.6 l -34.23,-72.21 c 0,0 -19.77,-143.06 -23.87,-206.69 -1.89,-29.2 5.32,-282.27 5.32,-282.27 0,0 -10.27,-5.07 -88.22,-13.66 -77.97,-8.59 -272.77,3.11 -274,12.31 -1.23,9.21 37.73,342.89 39.45,360.16 2.65,26.52 -7.65,149.07 -7.65,149.07 -14.7,-19.73 -52.14,-108.83 -91.17,-151.24 -22.97,-24.93 -136.66,-40.22 -158.09,-40.93 -46.65,-1.57 -131.75,-10.85 -134.24,-6.31 -1.98,2.72 -7.41,75.53 -2.08,77.31 4.67,1.55 162.7,10.66 203.18,32.13 14.81,7.87 59.09,104.41 59.09,104.41 0,0 71.73,151.14 105.56,166.34" /><path
         id="path316"
         style="fill:#e2d2ca;fill-opacity:1;fill-rule:nonzero;stroke:none"
         d="m 5030.17,1074.51 h 191.78 c 38.35,0 69.44,31.09 69.44,69.45 v 319.07 c 0,38.35 -31.09,69.45 -69.44,69.45 h -191.78 c -38.36,0 -69.44,-31.1 -69.44,-69.45 v -319.07 c 0,-38.36 31.08,-69.45 69.44,-69.45" /><path
         id="path318"
         style="fill:#e2d2ca;fill-opacity:1;fill-rule:nonzero;stroke:none"
         d="m 5019.32,968.172 c 48.74,0 88.28,16.379 117.53,48.658 66.1,72.98 54.22,201.27 53.68,206.7 -0.99,10.11 -10.03,17.5 -20.11,16.49 -10.11,-1.01 -17.5,-10.01 -16.5,-20.11 0.14,-1.47 10.67,-117.75 -44.41,-178.45 -22.28,-24.56 -51.78,-36.5 -90.19,-36.5 -10.16,0 -18.4,-8.241 -18.4,-18.39 0,-10.16 8.24,-18.398 18.4,-18.398" /><path
         id="path320"
         style="fill:#eef0f7;fill-opacity:1;fill-rule:nonzero;stroke:none"
         d="m 4422.25,1820.54 c 0,-50.77 -41.13,-92.34 -92.34,-92.34 -50.91,0 -92.36,41.26 -92.36,92.34 0,51 41.35,92.35 92.36,92.35 50.99,0 92.34,-41.35 92.34,-92.35" /><path
         id="path322"
         style="fill:#d9c7c1;fill-opacity:1;fill-rule:nonzero;stroke:none"
         d="m 4390.05,1769.59 -6.81,-24.44 c -12.15,-8.61 -26.48,-14.36 -41.99,-16.26 -2.74,-0.34 -5.51,-0.55 -8.32,-0.64 -1,-0.04 -2.01,-0.05 -3.02,-0.05 -2.99,0 -5.95,0.14 -8.86,0.42 -3.26,0.31 -6.47,0.79 -9.61,1.42 -13.99,2.85 -26.84,8.84 -37.74,17.24 -1.31,8.08 -2.72,17.01 -3.95,25.38 6.79,2.52 28.39,9.87 42.02,14.48 0.19,0.07 0.38,0.13 0.57,0.19 0.3,0.11 0.59,0.21 0.89,0.3 0.8,0.28 1.57,0.54 2.31,0.78 0.74,0.26 1.46,0.5 2.12,0.73 2.79,0.93 4.76,1.6 5.47,1.83 h 0.01 c 0.18,0.07 0.27,0.1 0.27,0.1 l 0.16,-0.01 18.33,-1.38 3.08,-0.22 0.95,-0.07 c 0,0 0.15,-0.04 0.42,-0.11 1.11,-0.28 4.32,-1.12 8.58,-2.42 0,0 0.01,-0.01 0.02,-0.01 10.86,-3.31 28.46,-9.63 35.1,-17.26" /><path
         id="path324"
         style="fill:#eea987;fill-opacity:1;fill-rule:nonzero;stroke:none"
         d="m 4334.71,1866.4 c 0,0 21.98,-3.72 18.25,-38.13 -3.73,-34.43 -23.13,-31.39 -24.43,-31.34 -1.3,0.06 -19.52,-0.41 -20.48,41.68 0,0 -0.28,31.1 26.66,27.79" /><path
         id="path326"
         style="fill:#eea987;fill-opacity:1;fill-rule:nonzero;stroke:none"
         d="m 4344.34,1806.91 c 0,0 -0.75,-14.16 0.58,-17.25 1.34,-3.08 -17.65,-12.84 -29.46,-1.72 0,0 2.4,15.47 1.65,20.94 -0.74,5.47 27.23,-1.97 27.23,-1.97" /><path
         id="path328"
         style="fill:#eea987;fill-opacity:1;fill-rule:nonzero;stroke:none"
         d="m 4353.41,1838 c 0,0 2.44,2.54 3.29,-0.07 0.86,-2.62 -3.89,-14.22 -3.59,-14.75 0,0 -0.45,-1.01 -1.03,-0.44 -0.57,0.57 1.33,15.26 1.33,15.26" /><path
         id="path330"
         style="fill:#eea987;fill-opacity:1;fill-rule:nonzero;stroke:none"
         d="m 4308.31,1838.92 c 0,0 -2.34,2.66 -3.31,0.07 -0.95,-2.58 2.56,-14.16 3,-14.87 0,0 0.75,-1.19 1.35,-0.66 0.6,0.54 -1.04,15.46 -1.04,15.46" /><path
         id="path332"
         style="fill:#e8734d;fill-opacity:1;fill-rule:nonzero;stroke:none"
         d="m 4354.82,1840.92 c -0.76,-4.71 -1.48,-8.21 -1.48,-8.21 l -3.2,-4.18 c 0,0 0.2,9.24 -0.29,10.69 -0.19,0.56 -0.4,1.53 -0.63,2.58 -0.37,1.74 -0.75,3.7 -1,4.37 -0.41,1.04 -18.84,6.42 -35.26,-1.14 0,0 0.14,-1.41 0.13,-3 -0.01,-1.85 -0.21,-3.91 -1.05,-4.22 -1.58,-0.58 -0.92,-10.81 -0.92,-10.81 l -2.56,2.95 c 0,0 -0.74,5.34 -1.48,11.49 0,0 0,0.02 0,0.04 -0.16,1.44 -0.33,2.91 -0.49,4.38 -0.36,6.19 0.24,17.41 8.3,24.01 5.43,2.31 14.1,4.3 28.56,-0.13 0,0 3.32,-0.22 4.25,-1.12 9,-9.91 7.12,-27.7 7.12,-27.7" /><path
         id="path334"
         style="fill:#c78d71;fill-opacity:1;fill-rule:nonzero;stroke:none"
         d="m 4318.62,1801.54 c 0,0 3.51,-4.87 11.67,-4.7 8.14,0.2 11.69,4.44 11.69,4.44 0,0 -3.86,-8.07 -11.73,-7.98 -7.87,0.07 -11.63,8.24 -11.63,8.24" /><path
         id="path336"
         style="fill:#eea987;fill-opacity:1;fill-rule:nonzero;stroke:none"
         d="m 4313.23,1787.63 c 0,0 5.89,-10.25 17.07,-11.22 7.09,-0.61 13.23,8.38 16.11,12.79 0,0 -15.89,6.8 -33.18,-1.57" /><path
         id="path338"
         style="fill:#eddad3;fill-opacity:1;fill-rule:nonzero;stroke:none"
         d="m 4344.37,1792.45 c 0,0 -4.49,-5.89 -14.07,-12.2 l 5.95,-9.17 10.16,18.12 -2.04,3.25" /><path
         id="path340"
         style="fill:#eddad3;fill-opacity:1;fill-rule:nonzero;stroke:none"
         d="m 4315.91,1791.07 c 0,0 5.73,-7.17 14.39,-10.82 l -6.54,-9.44 -11.42,16.53 3.57,3.73" /><path
         id="path342"
         style="fill:#5073ab;fill-opacity:1;fill-rule:nonzero;stroke:none"
         d="m 4330.3,1780.25 5.11,-7.75 c 0,0 -5.37,-3.04 -10.35,0.18 l 5.24,7.57" /><path
         id="path344"
         style="fill:#323657;fill-opacity:1;fill-rule:nonzero;stroke:none"
         d="m 4395.95,1771.03 c 0,0 -0.05,-0.17 -0.14,-0.51 -0.56,-1.99 -2.72,-9.65 -5.52,-19.85 -1.06,-0.91 -2.14,-1.81 -3.24,-2.67 -1.24,-0.98 -2.51,-1.93 -3.81,-2.85 -12.15,-8.61 -26.48,-14.36 -41.99,-16.26 1.36,31.97 5.15,60.31 5.15,60.31 3,-0.79 5.84,-1.57 8.53,-2.34 0,0 0.01,-0.01 0.02,-0.01 23.42,-6.72 35.31,-12.62 39.36,-14.86 0.03,-0.01 0.06,-0.03 0.09,-0.04 1.06,-0.6 1.55,-0.92 1.55,-0.92" /><path
         id="path346"
         style="fill:#323657;fill-opacity:1;fill-rule:nonzero;stroke:none"
         d="m 4311.44,1730.04 c -13.99,2.85 -26.84,8.84 -37.74,17.24 -3.3,2.52 -6.41,5.26 -9.33,8.2 -0.57,0.57 -1.13,1.16 -1.68,1.74 -1.62,6.87 -2.69,11.35 -2.76,11.64 v 0.01 c 0,0 11.42,7.51 51.84,18.29 0,0 0,0 0,-0.02 0,-0.92 0.02,-26.85 -0.33,-57.1" /><path
         id="path348"
         style="fill:#5073ab;fill-opacity:1;fill-rule:nonzero;stroke:none"
         d="m 4333.22,1771.64 c -0.37,-8.42 -0.41,-24.76 -0.29,-43.39 -1,-0.04 -2.01,-0.05 -3.02,-0.05 -2.99,0 -5.95,0.14 -8.86,0.42 1.78,22.98 4.77,37.35 6.13,43.05 0.45,1.86 0.73,2.79 0.73,2.79 l 5.42,-0.9 c -0.04,-0.59 -0.08,-1.23 -0.11,-1.92" /><path
         id="path350"
         style="fill:#323657;fill-opacity:1;fill-rule:nonzero;stroke:none"
         d="m 4400.61,1761.14 c -3.16,-3.76 -6.61,-7.26 -10.32,-10.47 -1.06,-0.91 -2.14,-1.81 -3.24,-2.67 0.03,0.11 5.31,15.48 8.9,23.03 2.44,-1.63 3.55,-7.17 4.66,-9.89" /><path
         id="path352"
         style="fill:#323657;fill-opacity:1;fill-rule:nonzero;stroke:none"
         d="m 4264.37,1755.48 c -0.57,0.57 -1.13,1.16 -1.68,1.74 -2.07,2.19 -4.02,4.48 -5.86,6.87 1.04,2.49 2.08,4.16 3.1,4.78 v -0.01 l 4.44,-13.38" /><path
         id="path354"
         style="fill:#1d3b54;fill-opacity:1;fill-rule:nonzero;stroke:none"
         d="m 3643.88,646.789 c 0,0 -12.04,19.672 -28.53,27.352 -16.5,7.668 -50.32,-19.11 -53.28,-34 l -39.2,-57.192 7.42,-5.097 20.93,30.527 c -14.25,-34.277 -34.61,-75.328 -20.31,-95.957 19.19,-27.703 62.73,-55.703 74.22,-50.852 11.51,4.84 9.2,85.379 9.2,85.379 -12.41,71.09 29.55,99.84 29.55,99.84" /><path
         id="path356"
         style="fill:#de9673;fill-opacity:1;fill-rule:nonzero;stroke:none"
         d="m 3643.88,646.789 c 0,0 -14.29,-27.469 -21.63,-48.797 -7.33,-21.32 -8.71,-80.383 -13.34,-84.48 -4.63,-4.09 -41.09,14.308 -45.97,36.39 -4.86,22.078 9.93,66.219 24.01,89.418 14.08,23.211 28.4,34.821 28.4,34.821 0,0 24.86,-4.84 28.53,-27.352" /><path
         id="path358"
         style="fill:#de9673;fill-opacity:1;fill-rule:nonzero;stroke:none"
         d="m 3784.65,1164.32 c 0,0 -22.34,-118.56 -22.34,-146.91 0,-28.359 -7.73,-74.75 -25.77,-109.109 -18.04,-34.379 -97.21,-269.153 -104.08,-296.512 -6.88,-27.328 -12.77,-53.16 -12.77,-53.16 0,0 -39.52,18.043 -39.52,43.82 0,25.762 34.38,238.832 40.38,280.922 6.02,42.098 55.85,257.749 55.85,257.749 l 108.25,23.2" /><path
         id="path360"
         style="fill:#eea886;fill-opacity:1;fill-rule:nonzero;stroke:none"
         d="m 3658.35,1172.05 c 0,0 7.74,-98.8 6.88,-124.57 -0.86,-25.78 -12.89,-84.199 -12.89,-99.671 0,-15.457 -0.01,-335.879 12.81,-374.539 12.82,-38.649 -36,-12.059 -36,-12.059 0,0 -85.05,210.75 -85.05,298.68 0,87.918 10.3,131.738 4.28,187.589 -6,55.85 -32.74,129.35 -32.74,129.35 l 142.71,-4.78" /><path
         id="path362"
         style="fill:#eb4747;fill-opacity:1;fill-rule:nonzero;stroke:none"
         d="m 3529.7,1647.6 c 0,0 -45.72,-56.01 -57.75,-130.76 -12.02,-74.74 14.24,-215.69 23.58,-256.47 8.2,-35.78 23.87,-150.32 24.73,-162.34 0,0 153.73,-17.41 270.57,19.53 0,0 10.69,159.96 17.56,227.84 6.87,67.87 -26.67,297.06 -26.67,297.06 l -252.02,5.14" /><path
         id="path364"
         style="fill:#1d3b54;fill-opacity:1;fill-rule:nonzero;stroke:none"
         d="m 3705.48,475.801 c -55.06,48.09 -40.33,97.469 -40.33,97.469 0,0 -22.01,7.82 -39.88,3.359 -17.88,-4.469 -27.46,-47.098 -20.31,-60.719 l 5.56,-70.031 9.08,0.742 -2.96,37.371 c 10.62,-36.082 20.72,-81.383 45.13,-88.523 32.77,-9.59 84.89,-3.91 90.86,7.23 5.97,11.141 -47.15,73.102 -47.15,73.102" /><path
         id="path366"
         style="fill:#754836;fill-opacity:1;fill-rule:nonzero;stroke:none"
         d="m 3737.8,2171.11 c 0,0 -13.63,-81.09 -1.86,-108.33 11.76,-27.24 -62.53,31.84 -62.53,31.84 0,0 30.83,89.35 64.39,76.49" /><path
         id="path368"
         style="fill:#754836;fill-opacity:1;fill-rule:nonzero;stroke:none"
         d="m 3710.33,2396.41 c 0,0 -119.26,27.3 -134.11,-100.13 -14.86,-127.43 38.79,-143.43 2.48,-229.79 -36.33,-86.36 88.68,28.13 88.68,28.13 l 42.95,301.79" /><path
         id="path370"
         style="fill:#eea886;fill-opacity:1;fill-rule:nonzero;stroke:none"
         d="m 3700.04,2398.27 c 30.62,0.61 97.99,-16.68 106.17,-98 0,0 -3.07,-21.77 -8.85,-38.78 -5.78,-17.02 8.16,-68.05 4.08,-70.43 -4.08,-2.38 -20.75,-5.11 -20.75,-5.11 0,0 -19.4,-54.78 -38.79,-53.76 -19.4,1.02 -92.43,18.26 -125.1,88.02 -32.66,69.75 -40.38,175.56 83.24,178.06" /><path
         id="path372"
         style="fill:#1d3b54;fill-opacity:1;fill-rule:nonzero;stroke:none"
         d="m 3366.48,1389.32 c 0,0 2.85,49.05 15.84,56.65 12.99,7.62 5.48,-7.56 5.48,-7.56 0,0 -7.3,-35.58 -8.91,-50 -0.08,-0.7 -12.41,0.91 -12.41,0.91" /><path
         id="path374"
         style="fill:#eea886;fill-opacity:1;fill-rule:nonzero;stroke:none"
         d="m 3426.58,1499.72 c 0,0 3.62,-21.98 10.28,-43.18 6.66,-21.19 12.79,-27.95 10.13,-40.09 -2.02,-9.17 -12.4,-16.05 -15.01,-13.11 -2.62,2.94 -3.89,38.58 -18.65,38.41 -14.77,-0.16 4.41,-44.14 -4.38,-40.9 -8.79,3.23 -42.63,21.76 -40.5,39.72 2.13,17.97 15.67,30.95 14.8,57.79 -0.79,24.34 6.78,34.52 6.78,34.52 l 36.55,-33.16" /><path
         id="path376"
         style="fill:#1d3b54;fill-opacity:1;fill-rule:nonzero;stroke:none"
         d="m 3414.78,1443.25 c 0,0 19.67,-5.03 18.5,-71.55 l -22.27,3.72 c 0,0 0.41,36.76 -6.24,56.8 0,0 1.13,13.02 10.01,11.03" /><path
         id="path378"
         style="fill:#eddad3;fill-opacity:1;fill-rule:nonzero;stroke:none"
         d="m 3496.43,1356.7 -173.41,49.18 0.51,-213.56 172.58,-103.44 0.32,267.82" /><path
         id="path380"
         style="fill:#eddad3;fill-opacity:1;fill-rule:nonzero;stroke:none"
         d="m 3496.11,1088.88 -21.73,-4 -167.85,104.38 2.08,215.65 14.41,0.97 173.09,-317" /><path
         id="path382"
         style="fill:#eb4747;fill-opacity:1;fill-rule:nonzero;stroke:none"
         d="m 3716.54,2098.68 c 0,0 46.23,-18.98 54.48,-24.76 8.25,-5.78 24.77,-72.64 28.89,-78.42 4.13,-5.78 44,-55.35 38.48,-95.54 -4.32,-31.58 -22.17,-48.29 -33.74,-60.67 -11.55,-12.38 -22.25,-79.04 -25.88,-88.94 -3.62,-9.9 7.9,-139.93 7.9,-139.93 0,0 -135.63,-52.79 -256.97,37.18 0,0 24.23,87.06 24.23,102.75 0,15.68 -15.68,126.29 -57.78,191.5 -42.1,65.21 7.43,134.55 39.62,142.79 32.19,8.27 94.1,31.38 94.1,31.38 l 86.67,-17.34" /><path
         id="path384"
         style="fill:#eb4747;fill-opacity:1;fill-rule:nonzero;stroke:none"
         d="m 3568.57,2094.5 c 0,0 -67.88,4.18 -101.93,-35.44 -34.05,-39.62 -32.19,-86.67 -40.86,-107.1 -8.67,-20.42 -28.48,-108.33 -32.82,-122.58 -4.32,-14.23 -8.55,-94.27 -14.74,-158.65 -6.19,-64.39 -4.94,-184.61 -4.94,-184.61 l 64.95,11.78 c 0,0 2.61,114.61 4.27,181.05 1.65,66.46 55.71,183.86 76.14,235.25 20.43,51.38 101.77,148.06 49.93,180.3" /><path
         id="path386"
         style="fill:#eb4747;fill-opacity:1;fill-rule:nonzero;stroke:none"
         d="m 3764.28,2077.67 c 0,0 29.86,-1.89 44.09,-31.61 14.24,-29.72 19.69,-54.43 23.4,-61.86 3.71,-7.43 55.23,-105.29 58.32,-126.96 3.1,-21.66 -1.85,-61.29 -29.1,-71.81 -27.24,-10.52 -125.05,-11.76 -125.05,-11.76 0,0 24.76,50.31 1.86,76.32 0,0 70.98,12.82 87.78,14.52 17.73,1.78 -83.79,190.88 -61.3,213.16" /><path
         id="path388"
         style="fill:#1d3b54;fill-opacity:1;fill-rule:nonzero;stroke:none"
         d="m 3601.67,1993.66 132.27,-308.91 164.89,77.68 -121.95,296.65 -175.21,-65.42" /><path
         id="path390"
         style="fill:#eea886;fill-opacity:1;fill-rule:nonzero;stroke:none"
         d="m 3677.54,1841.89 c 0,0 -17.9,-4.76 -23.57,-5.59 -5.67,-0.81 1.34,-11.32 8.3,-11.64 6.95,-0.31 15.27,17.23 15.27,17.23" /><path
         id="path392"
         style="fill:#eea886;fill-opacity:1;fill-rule:nonzero;stroke:none"
         d="m 3689.57,1753.99 c 0,0 8.31,0.41 11.85,2.36 0,0 6.18,4.06 10.74,6.66 1.46,0.82 2.75,1.52 3.62,1.87 3.66,1.49 12.13,3.66 19.91,9.71 7.76,6.03 33.06,30.13 33.06,30.13 l -16.72,25.21 -12.92,20.06 c 0,0 -54.36,-1.49 -62.25,-6.28 -0.77,-0.47 -1.51,-0.97 -2.18,-1.49 -6.29,-4.7 -8.99,-10.85 -12.01,-13.68 -1.1,-1.05 -11.36,-12.25 -10.74,-16.74 0.86,-6.24 3.98,-10.21 7.87,-12.07 0,0 2.22,-12.14 8.54,-17.52 0,0 1.68,-11.26 11.47,-15.7 0,0 2.99,-11.24 9.76,-12.52" /><path
         id="path394"
         style="fill:#eb4747;fill-opacity:1;fill-rule:nonzero;stroke:none"
         d="m 3737.8,1849.99 c 0,0 80.53,14.39 102.76,16.74 0,0 1.52,28.26 -2.54,52.2 -4.06,23.95 -23.73,56.08 -23.73,56.08 l 41.18,-37.72 c 0,0 33.86,-64.87 34.62,-80.05 0.76,-15.16 4.78,-38.58 -15.25,-62.32 -20.04,-23.73 -114.61,-12.87 -114.61,-12.87 0,0 7.9,29.12 -22.43,67.94" /><path
         id="path396"
         style="fill:#eea886;fill-opacity:1;fill-rule:nonzero;stroke:none"
         d="m 3713.02,2145.12 c 0,0 -2.6,-7.68 -5.63,-19.1 -1.56,-5.84 -3.22,-12.65 -4.71,-19.9 -4.09,-20.08 -6.82,-43.59 -2.03,-59.43 0,0 -43.33,-13.66 -75.52,47.93 0,0 16.4,64.93 -1.4,105.08 -17.8,40.13 89.29,-54.58 89.29,-54.58" /><path
         id="path398"
         style="fill:#754836;fill-opacity:1;fill-rule:nonzero;stroke:none"
         d="m 3806.21,2300.27 c 0,0 -50.59,-32.43 -100.04,-37.88 -49.45,-5.44 -76.96,-80.23 -76.96,-80.23 0,0 -77.74,121.06 -15.13,195.46 62.6,74.41 205.5,16.79 192.13,-77.35" /><path
         id="path400"
         style="fill:#eea886;fill-opacity:1;fill-rule:nonzero;stroke:none"
         d="m 3685.76,2265.24 c 0,9.54 -10.21,24.15 -26.2,11.56 -15.99,-12.59 3.74,-58.52 16.67,-54.44 12.93,4.08 9.53,33.01 9.53,42.88" /><path
         id="path402"
         style="fill:#eea886;fill-opacity:1;fill-rule:nonzero;stroke:none"
         d="m 3719.27,2097.55 c 0,0 20.38,-60.16 -27.28,-59.84 -47.68,0.3 -68.42,37.79 -82.03,71.05 0,0 21.97,10.66 32.18,12.21 10.22,1.55 77.13,-23.42 77.13,-23.42" /><path
         id="path404"
         style="fill:#1d3b54;fill-opacity:1;fill-rule:nonzero;stroke:none"
         d="m 3433.32,1374.6 -22.36,-2.9 0.02,10.43 z" /><path
         id="path406"
         style="fill:#1d3b54;fill-opacity:1;fill-rule:nonzero;stroke:none"
         d="m 3379.08,1389.98 -12.36,-1.47 c 0,0 -0.04,3.72 0.07,4.95 0.11,1.25 11.86,-2.7 12.29,-3.48" /><path
         id="path408"
         style="fill:#eea886;fill-opacity:1;fill-rule:nonzero;stroke:none"
         d="m 3665.15,573.27 c 0,0 6.26,-30.739 14.06,-52.219 7.81,-21.469 44.34,-68.852 43.3,-75.031 -1.03,-6.18 -41.48,-14.918 -59.37,-0.629 -17.9,14.289 -34.38,58.48 -38.07,85.73 -3.69,27.25 -1.74,44.828 -1.74,44.828 0,0 24.59,12.723 41.82,-2.679" /><path
         id="path410"
         style="fill:#a77860;fill-opacity:1;fill-rule:nonzero;stroke:none"
         d="m 3711.24,2138.89 c -1.56,-5.84 -3.85,-12.87 -5.64,-19.83 -39.13,26.43 -57.88,57.81 -57.88,57.81 22.2,-21.24 63.52,-37.98 63.52,-37.98" /><path
         id="path412"
         style="fill:#dfe1e8;fill-opacity:1;fill-rule:nonzero;stroke:none"
         d="m 1897.74,3296.52 h 461.2 c 37.58,0 68.05,-30.47 68.05,-68.05 v -186.42 c 0,-37.58 -30.47,-68.05 -68.05,-68.05 h -461.2 c -37.58,0 -68.05,30.47 -68.05,68.05 v 186.42 c 0,37.58 30.47,68.05 68.05,68.05" /><path
         id="path414"
         style="fill:#323657;fill-opacity:1;fill-rule:nonzero;stroke:none"
         d="m 1522.37,1677.04 c -0.04,0.01 -0.09,0.02 -0.15,0.01 0.61,-0.27 0.7,-0.3 0.15,-0.01" /><path
         id="path416"
         style="fill:#b5deff;fill-opacity:1;fill-rule:nonzero;stroke:none"
         d="m 1238.25,1728.48 h 441.22 c 12.28,0 22.24,9.96 22.24,22.25 v 13.55 c 0,12.29 -9.96,22.25 -22.24,22.25 h -441.22 c -12.29,0 -22.25,-9.96 -22.25,-22.25 v -13.55 c 0,-12.29 9.96,-22.25 22.25,-22.25" /><path
         id="path418"
         style="fill:#b5deff;fill-opacity:1;fill-rule:nonzero;stroke:none"
         d="m 1238.25,1623.79 h 441.22 c 12.28,0 22.24,9.97 22.24,22.25 v 13.55 c 0,12.29 -9.96,22.24 -22.24,22.24 h -441.22 c -12.29,0 -22.25,-9.95 -22.25,-22.24 v -13.55 c 0,-12.28 9.96,-22.25 22.25,-22.25" /><path
         id="path420"
         style="fill:#b5deff;fill-opacity:1;fill-rule:nonzero;stroke:none"
         d="m 1238.25,1519.1 h 441.22 c 12.28,0 22.24,9.96 22.24,22.24 v 13.57 c 0,12.27 -9.96,22.23 -22.24,22.23 h -441.22 c -12.29,0 -22.25,-9.96 -22.25,-22.23 v -13.57 c 0,-12.28 9.96,-22.24 22.25,-22.24" /><path
         id="path422"
         style="fill:#b5deff;fill-opacity:1;fill-rule:nonzero;stroke:none"
         d="m 1980.36,2010.35 h -105.39 c -22.89,0 -41.44,18.55 -41.44,41.44 v 325.77 c 0,22.89 18.55,41.44 41.44,41.44 h 105.39 c 22.88,0 41.44,-18.55 41.44,-41.44 v -325.77 c 0,-22.89 -18.56,-41.44 -41.44,-41.44" /><path
         id="path424"
         style="fill:#eea886;fill-opacity:1;fill-rule:nonzero;stroke:none"
         d="m 847.281,1278.87 c 0,0 7.231,-11.84 8.133,-21.52 0.719,-7.66 7.16,-19.1 9.945,-25.42 2.789,-6.32 11.758,-34.93 12.082,-42.37 0.133,-3.04 -6.66,-22.23 -5.699,-28.36 0.961,-6.14 4.473,-18.29 -1.035,-19.1 -5.512,-0.82 -11.758,9.16 -11.758,9.16 0,0 0.52,-5.66 -4.14,-7.81 -9.067,-4.2 -13.868,-0.5 -13.868,-0.5 0,0 -3.343,-6.22 -7.539,-7.06 -9.257,-1.84 -13.789,1.87 -13.789,1.87 0,0 -4.082,-3.48 -10.472,-3.36 -8.184,0.16 -11.621,7.23 -11.621,7.23 0,0 -10.364,-2.1 -13.364,2.73 -3.004,4.84 -2.484,9.99 -3.73,14.37 -1.246,4.38 -0.305,43.94 13.133,72.42 13.437,28.47 -3.418,56.26 -3.418,56.26 l 57.14,-8.54" /><path
         id="path426"
         style="fill:#db9c7c;fill-opacity:1;fill-rule:nonzero;stroke:none"
         d="m 860.406,1154.96 c 0,0 0.922,35.49 -8.418,43.04 -9.343,7.57 -10.406,-5.25 -10.406,-5.25 0,0 1.27,12.67 -8.937,14.37 -10.207,1.71 -10.637,-13.33 -10.637,-13.33 0,0 -1.672,9.76 -12.395,7.76 -10.722,-2 -8.168,-14.46 -8.168,-14.46 0,0 -10.238,12.21 -16.882,0.48 -11.219,-19.81 -0.407,-43.21 -0.407,-43.21 0,0 3.164,-5.36 13.364,-2.73 0,0 6.828,-13.75 22.093,-3.87 0,0 15.629,-8.6 21.328,5.19 0,0 17.235,-8.19 19.465,12.01" /><path
         id="path428"
         style="fill:#323657;fill-opacity:1;fill-rule:nonzero;stroke:none"
         d="m 967.672,1790.11 c 0,0 -60.758,-202.49 -81.285,-277.18 -6.438,-23.43 -22.016,-247.13 -24.766,-256.14 -2.754,-9 -79.812,-21.34 -79.812,-21.34 0,0 9.336,279.85 10.207,295.11 0.871,15.27 85.027,327.8 109.504,338.94 18.335,8.35 28.011,1.44 51.121,-15.72 32.425,-24.07 15.031,-63.67 15.031,-63.67" /><path
         id="path430"
         style="fill:#4da8f2;fill-opacity:1;fill-rule:nonzero;stroke:none"
         d="m 1566.92,2063.42 -6.76,10.34 139.06,91.02 6.76,-10.33 -139.06,-91.03" /><path
         id="path432"
         style="fill:#efaa88;fill-opacity:1;fill-rule:nonzero;stroke:none"
         d="m 1720.82,2112.45 c 0,0 -1.33,-7.86 -3.6,-11.03 0,0 -4.54,-5.42 -7.55,-9.47 -0.94,-1.29 -1.74,-2.44 -2.17,-3.23 -1.84,-3.31 -4.87,-11.14 -11.5,-17.85 -6.61,-6.72 -32.41,-28.09 -32.41,-28.09 l -22.1,18.76 -22.95,10.29 c 0,0 12.85,55.85 18.29,62.82 0.54,0.68 1.09,1.33 1.66,1.9 5.19,5.46 11.34,7.34 14.39,9.89 1.12,0.93 12.93,9.44 17.13,8.34 5.84,-1.51 9.27,-4.94 10.61,-8.85 0,0 11.31,-3.47 15.71,-10.11 0,0 10.53,-2.87 13.67,-12.67 0,0 10.35,-4.12 10.82,-10.7" /><path
         id="path434"
         style="fill:#424773;fill-opacity:1;fill-rule:nonzero;stroke:none"
         d="m 918.375,407.551 c 0,0 -5.539,-38.43 -6.23,-44.211 -0.696,-5.77 -61.61,3.402 -61.61,3.402 l -4.93,45.77 c 0,0 65.153,0.457 72.77,-4.961" /><path
         id="path436"
         style="fill:#292c47;fill-opacity:1;fill-rule:nonzero;stroke:none"
         d="m 912.793,368.23 c 0,0 19.297,-23.171 37.965,-33.261 18.668,-10.09 48.004,-14.098 59.032,-24.539 7.97,-7.551 29.03,-40.02 -48.501,-39.371 -77.523,0.652 -114.906,-4.59 -123.215,7.863 -8.304,12.449 12.024,91.918 12.024,91.918 0,0 18.359,-6.621 62.695,-2.61" /><path
         id="path438"
         style="fill:#424773;fill-opacity:1;fill-rule:nonzero;stroke:none"
         d="m 1354.83,407.551 c 0,0 -5.53,-38.43 -6.22,-44.211 -0.69,-5.77 -61.61,3.402 -61.61,3.402 l -4.93,45.77 c 0,0 65.15,0.457 72.76,-4.961" /><path
         id="path440"
         style="fill:#292c47;fill-opacity:1;fill-rule:nonzero;stroke:none"
         d="m 1349.25,368.23 c 0,0 19.3,-23.171 37.97,-33.261 18.67,-10.09 87.36,-18.387 98.4,-28.84 7.97,-7.547 21.22,-37.91 -87.87,-35.07 -77.5,2.023 -114.9,-4.59 -123.21,7.863 -8.3,12.449 12.02,91.918 12.02,91.918 0,0 17.3,-7.059 62.69,-2.61" /><path
         id="path442"
         style="fill:#292c47;fill-opacity:1;fill-rule:nonzero;stroke:none"
         d="m 968.816,1395.3 c 0,0 -57.238,-90.94 -52.964,-173.14 4.265,-82.2 -20.754,-171.95 -29.352,-257.82 -9.586,-95.731 -48.812,-322.36 -50.238,-373.57 -1.422,-51.211 6.086,-214.731 6.086,-214.731 l 78.527,-1.789 c 0,0 65.949,396.199 83.035,436.629 17.08,40.422 101.78,328.651 104.63,360.991 2.84,32.33 -139.724,223.43 -139.724,223.43" /><path
         id="path444"
         style="fill:#292c47;fill-opacity:1;fill-rule:nonzero;stroke:none"
         d="m 1270.12,1382.97 c 0,0 43.14,-225.3 48.83,-275.6 5.69,-50.32 9.49,-243.479 12.33,-274.921 2.85,-31.449 26.6,-410.539 34.17,-458.199 h -100.39 c 0,0 -77.06,276.262 -77.06,406.992 0,130.707 -59.54,284.168 -97.97,370.418 -38.43,86.24 -126.393,88.28 -150.018,248.3 0,0 298.128,33.77 330.108,-16.99" /><path
         id="path446"
         style="fill:#eea886;fill-opacity:1;fill-rule:nonzero;stroke:none"
         d="m 1064.33,2159.85 c 0,0 76.82,28.7 112.25,-29.79 35.42,-58.47 32.01,-175.55 -6.72,-189.95 -38.72,-14.4 -96.9,-6.86 -116.72,29.72 -19.82,36.59 -37.72,89.5 -36.87,124.85 0.86,35.36 27.89,54.96 48.06,65.17" /><path
         id="path448"
         style="fill:#eea886;fill-opacity:1;fill-rule:nonzero;stroke:none"
         d="m 1161.52,1937.43 c 0,0 -3.19,-20.73 2.09,-30.96 5.29,-10.21 -99.53,-10.48 -99.53,-10.48 0,0 -8.51,55.57 -24.64,102.54 -16.13,46.95 122.08,-61.1 122.08,-61.1" /><path
         id="path450"
         style="fill:#d88a51;fill-opacity:1;fill-rule:nonzero;stroke:none"
         d="m 1039.44,1998.53 c 0,0 7.23,-11.94 36.76,-7.31 29.53,4.64 65.56,43.91 77.89,48.24 12.33,4.31 12.44,11.55 12.44,11.55 l 7.72,-11.28 13.1,-0.83 c 0,0 -11.94,35.15 6.07,49.47 18.02,14.34 -18.7,113.76 -113.4,80.66 0,0 -72.74,-20.04 -70.1,-61.41 2.65,-41.37 13.24,-88.49 29.52,-109.09" /><path
         id="path452"
         style="fill:#e2d2ca;fill-opacity:1;fill-rule:nonzero;stroke:none"
         d="m 1169.83,1907.7 c 0,0 -0.33,19.52 -9.18,21.4 -8.85,1.86 -97.68,10.41 -108.54,6.14 v -22.74 c 0,0 20.93,-12.88 117.72,-4.8" /><path
         id="path454"
         style="fill:#eea886;fill-opacity:1;fill-rule:nonzero;stroke:none"
         d="m 1164.58,2066.05 c -1.66,6.94 -19.3,26.77 -26.06,5.54 -6.76,-21.23 10.21,-49.79 19.67,-47.34 9.46,2.45 10.58,24.21 6.39,41.8" /><path
         id="path456"
         style="fill:#323657;fill-opacity:1;fill-rule:nonzero;stroke:none"
         d="m 1316.75,1878.14 c -60.9,8.03 -146.92,29.57 -146.92,29.57 l -117.72,4.8 c 0,0 -108.044,-23.79 -150.59,-43.01 -4.04,-1.83 -4.055,-96.39 -15.133,-121.18 l 35.277,-74.43 c 0,0 20.383,-147.43 24.609,-213 1.946,-30.09 -42.031,-282.23 -42.031,-282.23 0,0 47.113,-13.87 127.458,-22.73 80.35,-8.85 281.09,3.2 282.35,12.69 1.27,9.49 -38.87,353.35 -40.65,371.16 -2.73,27.34 9.42,172.56 9.42,172.56 18.55,14.39 181.43,89.99 225.86,129.39 11.89,10.55 62.08,59.42 76.35,76.29 50.52,59.74 91.94,110.99 96.98,122.03 5.72,6.29 -54.9,39.25 -60.39,41.08 -4.82,1.61 -73.11,-86.88 -99.4,-115.35 -11.72,-12.7 -60.44,-48.15 -60.44,-48.15 0,0 -106.93,-41.68 -145.03,-39.49" /><path
         id="path458"
         style="fill:#d88a51;fill-opacity:1;fill-rule:nonzero;stroke:none"
         d="m 1042.45,2152.95 c 0,0 -97.962,-7.67 -3.01,-154.42 l 3.01,154.42" /><path
         id="path460"
         style="fill:#dfe1e8;fill-opacity:1;fill-rule:nonzero;stroke:none"
         d="m 1705.98,2154.45 8.04,12.26 -14.8,-1.93 z" /></g></g></svg>